<?xml version="1.0" encoding="UTF-8" standalone="no"?>
<!DOCTYPE svg PUBLIC "-//W3C//DTD SVG 1.1//EN"
 "http://www.w3.org/Graphics/SVG/1.1/DTD/svg11.dtd">
<!-- Generated by graphviz version 15.0.0 (20260523.1842)
 -->
<!-- Title: hw_stack Pages: 1 -->
<svg width="723pt" height="520pt"
 viewBox="0.00 0.00 723.00 520.00" xmlns="http://www.w3.org/2000/svg" xmlns:xlink="http://www.w3.org/1999/xlink">
<g id="graph0" class="graph" transform="scale(1 1) rotate(0) translate(4 515.5)">
<title>hw_stack</title>
<polygon fill="white" stroke="none" points="-4,4 -4,-515.5 719,-515.5 719,4 -4,4"/>
<g id="clust1" class="cluster">
<title>cluster_win</title>
<polygon fill="#f5f9ff" stroke="#9bbce8" points="316,-63 316,-335 707,-335 707,-63 316,-63"/>
<text xml:space="preserve" text-anchor="middle" x="511.5" y="-317.7" font-family="Times New Roman,serif" font-size="14.00">Windows 11 host (native)</text>
</g>
<g id="clust2" class="cluster">
<title>cluster_drv</title>
<polygon fill="#eaf1fb" stroke="#6f9fdc" points="324,-71 324,-230 513,-230 513,-71 324,-71"/>
<text xml:space="preserve" text-anchor="middle" x="418.5" y="-212.7" font-family="Times New Roman,serif" font-size="14.00">NVIDIA WDDM driver 591.74</text>
</g>
<g id="clust3" class="cluster">
<title>cluster_wsl</title>
<polygon fill="#f3fbf5" stroke="#7bb37b" points="8,-258.5 8,-503.5 308,-503.5 308,-258.5 8,-258.5"/>
<text xml:space="preserve" text-anchor="middle" x="158" y="-486.2" font-family="Times New Roman,serif" font-size="14.00">WSL2 — Ubuntu 24.04 (Hyper&#45;V lightweight VM)</text>
</g>
<!-- CC -->
<g id="node1" class="node">
<title>CC</title>
<path fill="#eef3fb" stroke="black" d="M539.62,-302.5C539.62,-302.5 434.38,-302.5 434.38,-302.5 428.38,-302.5 422.38,-296.5 422.38,-290.5 422.38,-290.5 422.38,-278.5 422.38,-278.5 422.38,-272.5 428.38,-266.5 434.38,-266.5 434.38,-266.5 539.62,-266.5 539.62,-266.5 545.62,-266.5 551.62,-272.5 551.62,-278.5 551.62,-278.5 551.62,-290.5 551.62,-290.5 551.62,-296.5 545.62,-302.5 539.62,-302.5"/>
<text xml:space="preserve" text-anchor="middle" x="487" y="-287.55" font-family="Helvetica,sans-Serif" font-size="11.00">Claude Code session</text>
<text xml:space="preserve" text-anchor="middle" x="487" y="-274.05" font-family="Helvetica,sans-Serif" font-size="11.00">(Git Bash / PowerShell)</text>
</g>
<!-- BL -->
<g id="node2" class="node">
<title>BL</title>
<path fill="#eef3fb" stroke="black" d="M687.38,-197.5C687.38,-197.5 532.62,-197.5 532.62,-197.5 526.62,-197.5 520.62,-191.5 520.62,-185.5 520.62,-185.5 520.62,-173.5 520.62,-173.5 520.62,-167.5 526.62,-161.5 532.62,-161.5 532.62,-161.5 687.38,-161.5 687.38,-161.5 693.38,-161.5 699.38,-167.5 699.38,-173.5 699.38,-173.5 699.38,-185.5 699.38,-185.5 699.38,-191.5 693.38,-197.5 687.38,-197.5"/>
<text xml:space="preserve" text-anchor="middle" x="610" y="-182.55" font-family="Helvetica,sans-Serif" font-size="11.00">Blender 5.1 + MCP add&#45;on</text>
<text xml:space="preserve" text-anchor="middle" x="610" y="-169.05" font-family="Helvetica,sans-Serif" font-size="11.00">bpy · EEVEE&#45;Next / Cycles&#45;OptiX</text>
</g>
<!-- CC&#45;&gt;BL -->
<g id="edge2" class="edge">
<title>CC&#45;&gt;BL</title>
<path fill="none" stroke="black" d="M507.87,-266.03C527.87,-249.28 558.24,-223.84 580.67,-205.06"/>
<polygon fill="black" stroke="black" points="582.86,-207.79 588.28,-198.69 578.37,-202.42 582.86,-207.79"/>
<text xml:space="preserve" text-anchor="middle" x="598.14" y="-239.95" font-family="Helvetica,sans-Serif" font-size="9.00">MCP TCP socket (localhost)</text>
</g>
<!-- PY -->
<g id="node5" class="node">
<title>PY</title>
<path fill="#eef3fb" stroke="black" d="M288.38,-471C288.38,-471 103.62,-471 103.62,-471 97.62,-471 91.62,-465 91.62,-459 91.62,-459 91.62,-447 91.62,-447 91.62,-441 97.62,-435 103.62,-435 103.62,-435 288.38,-435 288.38,-435 294.38,-435 300.38,-441 300.38,-447 300.38,-447 300.38,-459 300.38,-459 300.38,-465 294.38,-471 288.38,-471"/>
<text xml:space="preserve" text-anchor="middle" x="196" y="-456.05" font-family="Helvetica,sans-Serif" font-size="11.00">Python 3.12 venv</text>
<text xml:space="preserve" text-anchor="middle" x="196" y="-442.55" font-family="Helvetica,sans-Serif" font-size="11.00">PyTorch cu128 · ATen · cuDNN/cuBLAS</text>
</g>
<!-- CC&#45;&gt;PY -->
<g id="edge1" class="edge">
<title>CC&#45;&gt;PY</title>
<path fill="none" stroke="black" d="M459.8,-302.93C424.06,-325.62 359.12,-366.14 302,-398 282.52,-408.86 260.61,-420.17 241.79,-429.62"/>
<polygon fill="black" stroke="black" points="240.42,-426.39 233.04,-433.98 243.55,-432.65 240.42,-426.39"/>
<text xml:space="preserve" text-anchor="middle" x="386.1" y="-376.7" font-family="Helvetica,sans-Serif" font-size="9.00">wsl bash &#45;lc</text>
</g>
<!-- NVK -->
<g id="node4" class="node">
<title>NVK</title>
<path fill="#eef3fb" stroke="black" d="M474.75,-115C474.75,-115 385.25,-115 385.25,-115 379.25,-115 373.25,-109 373.25,-103 373.25,-103 373.25,-91 373.25,-91 373.25,-85 379.25,-79 385.25,-79 385.25,-79 474.75,-79 474.75,-79 480.75,-79 486.75,-85 486.75,-91 486.75,-91 486.75,-103 486.75,-103 486.75,-109 480.75,-115 474.75,-115"/>
<text xml:space="preserve" text-anchor="middle" x="430" y="-100.05" font-family="Helvetica,sans-Serif" font-size="11.00">nvlddmkm.sys</text>
<text xml:space="preserve" text-anchor="middle" x="430" y="-86.55" font-family="Helvetica,sans-Serif" font-size="11.00">(kernel&#45;mode driver)</text>
</g>
<!-- BL&#45;&gt;NVK -->
<g id="edge8" class="edge">
<title>BL&#45;&gt;NVK</title>
<path fill="none" stroke="black" d="M570.94,-161.03C544.05,-149.01 508.12,-132.94 479.26,-120.03"/>
<polygon fill="black" stroke="black" points="480.92,-116.94 470.36,-116.05 478.06,-123.33 480.92,-116.94"/>
<text xml:space="preserve" text-anchor="middle" x="607.65" y="-134.95" font-family="Helvetica,sans-Serif" font-size="9.00">Vulkan/OpenGL/OptiX (native, no VM)</text>
</g>
<!-- DXGK -->
<g id="node3" class="node">
<title>DXGK</title>
<path fill="#eef3fb" stroke="black" d="M467.62,-197.5C467.62,-197.5 356.38,-197.5 356.38,-197.5 350.38,-197.5 344.38,-191.5 344.38,-185.5 344.38,-185.5 344.38,-173.5 344.38,-173.5 344.38,-167.5 350.38,-161.5 356.38,-161.5 356.38,-161.5 467.62,-161.5 467.62,-161.5 473.62,-161.5 479.62,-167.5 479.62,-173.5 479.62,-173.5 479.62,-185.5 479.62,-185.5 479.62,-191.5 473.62,-197.5 467.62,-197.5"/>
<text xml:space="preserve" text-anchor="middle" x="412" y="-182.55" font-family="Helvetica,sans-Serif" font-size="11.00">dxgkrnl.sys</text>
<text xml:space="preserve" text-anchor="middle" x="412" y="-169.05" font-family="Helvetica,sans-Serif" font-size="11.00">(DirectX graphics kernel)</text>
</g>
<!-- DXGK&#45;&gt;NVK -->
<g id="edge6" class="edge">
<title>DXGK&#45;&gt;NVK</title>
<path fill="none" stroke="black" d="M414.62,-161.13C416.01,-152.61 417.88,-142.22 420,-133 420.5,-130.83 421.05,-128.59 421.63,-126.35"/>
<polygon fill="black" stroke="black" points="424.98,-127.38 424.25,-116.81 418.23,-125.53 424.98,-127.38"/>
</g>
<!-- GPU -->
<g id="node8" class="node">
<title>GPU</title>
<path fill="#ffe9cc" stroke="black" d="M519.38,-36C519.38,-36 340.62,-36 340.62,-36 334.62,-36 328.62,-30 328.62,-24 328.62,-24 328.62,-12 328.62,-12 328.62,-6 334.62,0 340.62,0 340.62,0 519.38,0 519.38,0 525.38,0 531.38,-6 531.38,-12 531.38,-12 531.38,-24 531.38,-24 531.38,-30 525.38,-36 519.38,-36"/>
<text xml:space="preserve" text-anchor="middle" x="430" y="-21.05" font-family="Helvetica,sans-Serif" font-size="11.00">RTX 5070 Ti — Blackwell sm_120</text>
<text xml:space="preserve" text-anchor="middle" x="430" y="-7.55" font-family="Helvetica,sans-Serif" font-size="11.00">16 GB GDDR7 · 5th&#45;gen Tensor Cores</text>
</g>
<!-- NVK&#45;&gt;GPU -->
<g id="edge7" class="edge">
<title>NVK&#45;&gt;GPU</title>
<path fill="none" stroke="black" d="M430,-78.53C430,-69.47 430,-58.17 430,-47.86"/>
<polygon fill="black" stroke="black" points="433.5,-47.92 430,-37.92 426.5,-47.92 433.5,-47.92"/>
</g>
<!-- LIBCUDA -->
<g id="node6" class="node">
<title>LIBCUDA</title>
<path fill="#eef3fb" stroke="black" d="M280.5,-398C280.5,-398 147.5,-398 147.5,-398 141.5,-398 135.5,-392 135.5,-386 135.5,-386 135.5,-374 135.5,-374 135.5,-368 141.5,-362 147.5,-362 147.5,-362 280.5,-362 280.5,-362 286.5,-362 292.5,-368 292.5,-374 292.5,-374 292.5,-386 292.5,-386 292.5,-392 286.5,-398 280.5,-398"/>
<text xml:space="preserve" text-anchor="middle" x="214" y="-383.05" font-family="Helvetica,sans-Serif" font-size="11.00">libcuda.so + libdxcore.so</text>
<text xml:space="preserve" text-anchor="middle" x="214" y="-369.55" font-family="Helvetica,sans-Serif" font-size="11.00">(/usr/lib/wsl/lib — WSL stubs)</text>
</g>
<!-- PY&#45;&gt;LIBCUDA -->
<g id="edge3" class="edge">
<title>PY&#45;&gt;LIBCUDA</title>
<path fill="none" stroke="black" d="M200.36,-434.81C202.33,-427.05 204.7,-417.68 206.91,-408.95"/>
<polygon fill="black" stroke="black" points="210.25,-410.05 209.31,-399.5 203.46,-408.33 210.25,-410.05"/>
</g>
<!-- DXG -->
<g id="node7" class="node">
<title>DXG</title>
<path fill="#eef3fb" stroke="black" d="M282.25,-302.5C282.25,-302.5 189.75,-302.5 189.75,-302.5 183.75,-302.5 177.75,-296.5 177.75,-290.5 177.75,-290.5 177.75,-278.5 177.75,-278.5 177.75,-272.5 183.75,-266.5 189.75,-266.5 189.75,-266.5 282.25,-266.5 282.25,-266.5 288.25,-266.5 294.25,-272.5 294.25,-278.5 294.25,-278.5 294.25,-290.5 294.25,-290.5 294.25,-296.5 288.25,-302.5 282.25,-302.5"/>
<text xml:space="preserve" text-anchor="middle" x="236" y="-287.55" font-family="Helvetica,sans-Serif" font-size="11.00">/dev/dxg</text>
<text xml:space="preserve" text-anchor="middle" x="236" y="-274.05" font-family="Helvetica,sans-Serif" font-size="11.00">(dxgkrnl Linux driver)</text>
</g>
<!-- LIBCUDA&#45;&gt;DXG -->
<g id="edge4" class="edge">
<title>LIBCUDA&#45;&gt;DXG</title>
<path fill="none" stroke="black" d="M218.04,-361.85C221.18,-348.49 225.61,-329.65 229.29,-314.03"/>
<polygon fill="black" stroke="black" points="232.69,-314.87 231.57,-304.33 225.87,-313.26 232.69,-314.87"/>
</g>
<!-- DXG&#45;&gt;DXGK -->
<g id="edge5" class="edge">
<title>DXG&#45;&gt;DXGK</title>
<path fill="none" stroke="black" d="M215,-266.13C207.01,-257.43 201.28,-246.87 208,-238 223.44,-217.61 282.24,-202.41 332.78,-192.78"/>
<polygon fill="black" stroke="black" points="333.39,-196.22 342.59,-190.96 332.12,-189.34 333.39,-196.22"/>
<text xml:space="preserve" text-anchor="middle" x="260.5" y="-239.95" font-family="Helvetica,sans-Serif" font-size="9.00">VMBus paravirt (GPU&#45;PV)</text>
</g>
</g>
</svg>
