<?xml version="1.0" encoding="UTF-8" standalone="no"?>
<!DOCTYPE svg PUBLIC "-//W3C//DTD SVG 1.1//EN"
 "http://www.w3.org/Graphics/SVG/1.1/DTD/svg11.dtd">
<!-- Generated by graphviz version 15.0.0 (20260523.1842)
 -->
<!-- Title: gpu_op Pages: 1 -->
<svg width="1264pt" height="87pt"
 viewBox="0.00 0.00 1264.00 87.00" xmlns="http://www.w3.org/2000/svg" xmlns:xlink="http://www.w3.org/1999/xlink">
<g id="graph0" class="graph" transform="scale(1 1) rotate(0) translate(4 83.45)">
<title>gpu_op</title>
<polygon fill="white" stroke="none" points="-4,4 -4,-83.45 1259.5,-83.45 1259.5,4 -4,4"/>
<text xml:space="preserve" text-anchor="middle" x="627.75" y="-65.95" font-family="Helvetica,sans-Serif" font-size="10.00">bf16/tf32 tensor&#45;core path — data stays in VRAM until .cpu() forces D2H</text>
<!-- AT -->
<g id="node1" class="node">
<title>AT</title>
<path fill="#eef3fb" stroke="black" d="M81.25,-59.45C81.25,-59.45 12,-59.45 12,-59.45 6,-59.45 0,-53.45 0,-47.45 0,-47.45 0,-35.45 0,-35.45 0,-29.45 6,-23.45 12,-23.45 12,-23.45 81.25,-23.45 81.25,-23.45 87.25,-23.45 93.25,-29.45 93.25,-35.45 93.25,-35.45 93.25,-47.45 93.25,-47.45 93.25,-53.45 87.25,-59.45 81.25,-59.45"/>
<text xml:space="preserve" text-anchor="middle" x="46.62" y="-44.5" font-family="Helvetica,sans-Serif" font-size="11.00">PyTorch ATen</text>
<text xml:space="preserve" text-anchor="middle" x="46.62" y="-31" font-family="Helvetica,sans-Serif" font-size="11.00">(Python, WSL2)</text>
</g>
<!-- CU -->
<g id="node2" class="node">
<title>CU</title>
<path fill="#eef3fb" stroke="black" d="M337.25,-59.45C337.25,-59.45 290.5,-59.45 290.5,-59.45 284.5,-59.45 278.5,-53.45 278.5,-47.45 278.5,-47.45 278.5,-35.45 278.5,-35.45 278.5,-29.45 284.5,-23.45 290.5,-23.45 290.5,-23.45 337.25,-23.45 337.25,-23.45 343.25,-23.45 349.25,-29.45 349.25,-35.45 349.25,-35.45 349.25,-47.45 349.25,-47.45 349.25,-53.45 343.25,-59.45 337.25,-59.45"/>
<text xml:space="preserve" text-anchor="middle" x="313.88" y="-44.5" font-family="Helvetica,sans-Serif" font-size="11.00">libcuda.so</text>
<text xml:space="preserve" text-anchor="middle" x="313.88" y="-31" font-family="Helvetica,sans-Serif" font-size="11.00">(WSL stub)</text>
</g>
<!-- AT&#45;&gt;CU -->
<g id="edge1" class="edge">
<title>AT&#45;&gt;CU</title>
<path fill="none" stroke="black" d="M93.53,-41.45C142.02,-41.45 218.05,-41.45 266.66,-41.45"/>
<polygon fill="black" stroke="black" points="266.58,-44.95 276.58,-41.45 266.58,-37.95 266.58,-44.95"/>
<text xml:space="preserve" text-anchor="middle" x="185.88" y="-43.4" font-family="Helvetica,sans-Serif" font-size="9.00">cudaLaunchKernel / cublasGemmEx</text>
</g>
<!-- DX -->
<g id="node3" class="node">
<title>DX</title>
<path fill="#eef3fb" stroke="black" d="M567.75,-59.45C567.75,-59.45 488,-59.45 488,-59.45 482,-59.45 476,-53.45 476,-47.45 476,-47.45 476,-35.45 476,-35.45 476,-29.45 482,-23.45 488,-23.45 488,-23.45 567.75,-23.45 567.75,-23.45 573.75,-23.45 579.75,-29.45 579.75,-35.45 579.75,-35.45 579.75,-47.45 579.75,-47.45 579.75,-53.45 573.75,-59.45 567.75,-59.45"/>
<text xml:space="preserve" text-anchor="middle" x="527.88" y="-44.5" font-family="Helvetica,sans-Serif" font-size="11.00">/dev/dxg + dxgkrnl</text>
<text xml:space="preserve" text-anchor="middle" x="527.88" y="-31" font-family="Helvetica,sans-Serif" font-size="11.00">(Linux)</text>
</g>
<!-- CU&#45;&gt;DX -->
<g id="edge2" class="edge">
<title>CU&#45;&gt;DX</title>
<path fill="none" stroke="black" d="M349.41,-41.45C380.46,-41.45 426.82,-41.45 464.37,-41.45"/>
<polygon fill="black" stroke="black" points="464.2,-44.95 474.2,-41.45 464.2,-37.95 464.2,-44.95"/>
<text xml:space="preserve" text-anchor="middle" x="412.62" y="-43.4" font-family="Helvetica,sans-Serif" font-size="9.00">ioctl submit cmd buffer</text>
</g>
<!-- VB -->
<g id="node4" class="node">
<title>VB</title>
<path fill="#eef3fb" stroke="black" d="M727.75,-59.45C727.75,-59.45 687.75,-59.45 687.75,-59.45 681.75,-59.45 675.75,-53.45 675.75,-47.45 675.75,-47.45 675.75,-35.45 675.75,-35.45 675.75,-29.45 681.75,-23.45 687.75,-23.45 687.75,-23.45 727.75,-23.45 727.75,-23.45 733.75,-23.45 739.75,-29.45 739.75,-35.45 739.75,-35.45 739.75,-47.45 739.75,-47.45 739.75,-53.45 733.75,-59.45 727.75,-59.45"/>
<text xml:space="preserve" text-anchor="middle" x="707.75" y="-44.5" font-family="Helvetica,sans-Serif" font-size="11.00">VMBus</text>
<text xml:space="preserve" text-anchor="middle" x="707.75" y="-31" font-family="Helvetica,sans-Serif" font-size="11.00">(Hyper&#45;V)</text>
</g>
<!-- DX&#45;&gt;VB -->
<g id="edge3" class="edge">
<title>DX&#45;&gt;VB</title>
<path fill="none" stroke="black" d="M579.85,-41.45C606.43,-41.45 638.59,-41.45 663.89,-41.45"/>
<polygon fill="black" stroke="black" points="663.82,-44.95 673.82,-41.45 663.82,-37.95 663.82,-44.95"/>
<text xml:space="preserve" text-anchor="middle" x="627.75" y="-43.4" font-family="Helvetica,sans-Serif" font-size="9.00">paravirt packet</text>
</g>
<!-- HK -->
<g id="node5" class="node">
<title>HK</title>
<path fill="#eef3fb" stroke="black" d="M973.25,-59.45C973.25,-59.45 902.5,-59.45 902.5,-59.45 896.5,-59.45 890.5,-53.45 890.5,-47.45 890.5,-47.45 890.5,-35.45 890.5,-35.45 890.5,-29.45 896.5,-23.45 902.5,-23.45 902.5,-23.45 973.25,-23.45 973.25,-23.45 979.25,-23.45 985.25,-29.45 985.25,-35.45 985.25,-35.45 985.25,-47.45 985.25,-47.45 985.25,-53.45 979.25,-59.45 973.25,-59.45"/>
<text xml:space="preserve" text-anchor="middle" x="937.88" y="-44.5" font-family="Helvetica,sans-Serif" font-size="11.00">Host dxgkrnl.sys</text>
<text xml:space="preserve" text-anchor="middle" x="937.88" y="-31" font-family="Helvetica,sans-Serif" font-size="11.00">+ nvlddmkm</text>
</g>
<!-- VB&#45;&gt;HK -->
<g id="edge4" class="edge">
<title>VB&#45;&gt;HK</title>
<path fill="none" stroke="black" d="M739.99,-41.45C775.61,-41.45 834.62,-41.45 878.76,-41.45"/>
<polygon fill="black" stroke="black" points="878.7,-44.95 888.7,-41.45 878.7,-37.95 878.7,-44.95"/>
<text xml:space="preserve" text-anchor="middle" x="815.12" y="-43.4" font-family="Helvetica,sans-Serif" font-size="9.00">forward to WDDM scheduler</text>
</g>
<!-- HK&#45;&gt;AT -->
<g id="edge7" class="edge">
<title>HK&#45;&gt;AT</title>
<path fill="none" stroke="#888888" stroke-dasharray="5,2" d="M890.39,-34.14C850.51,-28.1 791.47,-19.68 739.75,-14.45 535.79,6.18 482.76,2.9 278.5,-14.45 219.19,-19.49 151.58,-27.69 104.93,-33.73"/>
<polygon fill="#888888" stroke="#888888" points="104.5,-30.25 95.03,-35.02 105.4,-37.2 104.5,-30.25"/>
<text xml:space="preserve" text-anchor="middle" x="527.88" y="-3.55" font-family="Helvetica,sans-Serif" font-size="9.00">async stream callback</text>
</g>
<!-- GPU -->
<g id="node6" class="node">
<title>GPU</title>
<path fill="#ffe9cc" stroke="black" d="M1243.5,-59.45C1243.5,-59.45 1151,-59.45 1151,-59.45 1145,-59.45 1139,-53.45 1139,-47.45 1139,-47.45 1139,-35.45 1139,-35.45 1139,-29.45 1145,-23.45 1151,-23.45 1151,-23.45 1243.5,-23.45 1243.5,-23.45 1249.5,-23.45 1255.5,-29.45 1255.5,-35.45 1255.5,-35.45 1255.5,-47.45 1255.5,-47.45 1255.5,-53.45 1249.5,-59.45 1243.5,-59.45"/>
<text xml:space="preserve" text-anchor="middle" x="1197.25" y="-44.5" font-family="Helvetica,sans-Serif" font-size="11.00">RTX 5070 Ti</text>
<text xml:space="preserve" text-anchor="middle" x="1197.25" y="-31" font-family="Helvetica,sans-Serif" font-size="11.00">sm_120 tensor cores</text>
</g>
<!-- HK&#45;&gt;GPU -->
<g id="edge5" class="edge">
<title>HK&#45;&gt;GPU</title>
<path fill="none" stroke="black" d="M985.48,-41.45C1025.06,-41.45 1082.42,-41.45 1127.31,-41.45"/>
<polygon fill="black" stroke="black" points="1127.21,-44.95 1137.21,-41.45 1127.21,-37.95 1127.21,-44.95"/>
<text xml:space="preserve" text-anchor="middle" x="1062.12" y="-43.4" font-family="Helvetica,sans-Serif" font-size="9.00">DMA over PCIe + SASS exec</text>
</g>
<!-- GPU&#45;&gt;HK -->
<g id="edge6" class="edge">
<title>GPU&#45;&gt;HK</title>
<path fill="none" stroke="#888888" stroke-dasharray="5,2" d="M1138.89,-29.23C1132.87,-28.3 1126.83,-27.51 1121,-26.95 1068.9,-21.98 1055.26,-21.17 1003.25,-26.95 1001.07,-27.19 998.86,-27.48 996.63,-27.8"/>
<polygon fill="#888888" stroke="#888888" points="996.2,-24.33 986.92,-29.44 997.37,-31.23 996.2,-24.33"/>
<text xml:space="preserve" text-anchor="middle" x="1062.12" y="-28.9" font-family="Helvetica,sans-Serif" font-size="9.00">completion fence (interrupt)</text>
</g>
</g>
</svg>
