<?xml version="1.0" encoding="UTF-8" standalone="no"?>
<!DOCTYPE svg PUBLIC "-//W3C//DTD SVG 1.1//EN"
 "http://www.w3.org/Graphics/SVG/1.1/DTD/svg11.dtd">
<!-- Generated by graphviz version 15.0.0 (20260523.1842)
 -->
<!-- Title: cuda_execution Pages: 1 -->
<svg width="431pt" height="809pt"
 viewBox="0.00 0.00 431.00 809.00" xmlns="http://www.w3.org/2000/svg" xmlns:xlink="http://www.w3.org/1999/xlink">
<g id="graph0" class="graph" transform="scale(1 1) rotate(0) translate(4 804.5)">
<title>cuda_execution</title>
<polygon fill="white" stroke="none" points="-4,4 -4,-804.5 427,-804.5 427,4 -4,4"/>
<g id="clust1" class="cluster">
<title>cluster_sw</title>
<polygon fill="#f3fbf5" stroke="#7bb37b" points="128,-424 128,-792.5 330,-792.5 330,-424 128,-424"/>
<text xml:space="preserve" text-anchor="middle" x="229" y="-775.2" font-family="Times New Roman,serif" font-size="14.00">Software (WSL2 venv)</text>
</g>
<g id="clust2" class="cluster">
<title>cluster_gpu</title>
<polygon fill="#fff6ea" stroke="#e0a35c" points="8,-8 8,-332 415,-332 415,-8 8,-8"/>
<text xml:space="preserve" text-anchor="middle" x="211.5" y="-314.7" font-family="Times New Roman,serif" font-size="14.00">RTX 5070 Ti — Blackwell sm_120</text>
</g>
<!-- OP -->
<g id="node1" class="node">
<title>OP</title>
<path fill="#eef3fb" stroke="black" d="M307.12,-760C307.12,-760 150.88,-760 150.88,-760 144.88,-760 138.88,-754 138.88,-748 138.88,-748 138.88,-736 138.88,-736 138.88,-730 144.88,-724 150.88,-724 150.88,-724 307.12,-724 307.12,-724 313.12,-724 319.12,-730 319.12,-736 319.12,-736 319.12,-748 319.12,-748 319.12,-754 313.12,-760 307.12,-760"/>
<text xml:space="preserve" text-anchor="middle" x="229" y="-744.5" font-family="Helvetica,sans-Serif" font-size="10.00">PyTorch op — e.g. DINOv3 attention,</text>
<text xml:space="preserve" text-anchor="middle" x="229" y="-732.5" font-family="Helvetica,sans-Serif" font-size="10.00">MHRHead GEMM, LBS &#160;(bf16 / tf32)</text>
</g>
<!-- ATEN -->
<g id="node2" class="node">
<title>ATEN</title>
<path fill="#eef3fb" stroke="black" d="M255.75,-687C255.75,-687 202.25,-687 202.25,-687 196.25,-687 190.25,-681 190.25,-675 190.25,-675 190.25,-663 190.25,-663 190.25,-657 196.25,-651 202.25,-651 202.25,-651 255.75,-651 255.75,-651 261.75,-651 267.75,-657 267.75,-663 267.75,-663 267.75,-675 267.75,-675 267.75,-681 261.75,-687 255.75,-687"/>
<text xml:space="preserve" text-anchor="middle" x="229" y="-665.5" font-family="Helvetica,sans-Serif" font-size="10.00">ATen dispatch</text>
</g>
<!-- OP&#45;&gt;ATEN -->
<g id="edge1" class="edge">
<title>OP&#45;&gt;ATEN</title>
<path fill="none" stroke="black" d="M229,-723.81C229,-716.23 229,-707.1 229,-698.54"/>
<polygon fill="black" stroke="black" points="232.5,-698.54 229,-688.54 225.5,-698.54 232.5,-698.54"/>
</g>
<!-- LIBS -->
<g id="node3" class="node">
<title>LIBS</title>
<path fill="#eef3fb" stroke="black" d="M305.62,-614C305.62,-614 152.38,-614 152.38,-614 146.38,-614 140.38,-608 140.38,-602 140.38,-602 140.38,-590 140.38,-590 140.38,-584 146.38,-578 152.38,-578 152.38,-578 305.62,-578 305.62,-578 311.62,-578 317.62,-584 317.62,-590 317.62,-590 317.62,-602 317.62,-602 317.62,-608 311.62,-614 305.62,-614"/>
<text xml:space="preserve" text-anchor="middle" x="229" y="-598.5" font-family="Helvetica,sans-Serif" font-size="10.00">cuDNN · cuBLAS · flash&#45;attn</text>
<text xml:space="preserve" text-anchor="middle" x="229" y="-586.5" font-family="Helvetica,sans-Serif" font-size="10.00">(SASS kernels compiled for sm_120)</text>
</g>
<!-- ATEN&#45;&gt;LIBS -->
<g id="edge2" class="edge">
<title>ATEN&#45;&gt;LIBS</title>
<path fill="none" stroke="black" d="M229,-650.81C229,-643.23 229,-634.1 229,-625.54"/>
<polygon fill="black" stroke="black" points="232.5,-625.54 229,-615.54 225.5,-625.54 232.5,-625.54"/>
</g>
<!-- RT -->
<g id="node4" class="node">
<title>RT</title>
<path fill="#eef3fb" stroke="black" d="M310.12,-541C310.12,-541 147.88,-541 147.88,-541 141.88,-541 135.88,-535 135.88,-529 135.88,-529 135.88,-517 135.88,-517 135.88,-511 141.88,-505 147.88,-505 147.88,-505 310.12,-505 310.12,-505 316.12,-505 322.12,-511 322.12,-517 322.12,-517 322.12,-529 322.12,-529 322.12,-535 316.12,-541 310.12,-541"/>
<text xml:space="preserve" text-anchor="middle" x="229" y="-525.5" font-family="Helvetica,sans-Serif" font-size="10.00">CUDA Runtime → cudaLaunchKernel /</text>
<text xml:space="preserve" text-anchor="middle" x="229" y="-513.5" font-family="Helvetica,sans-Serif" font-size="10.00">cublasGemmEx / cudaMemcpyAsync</text>
</g>
<!-- LIBS&#45;&gt;RT -->
<g id="edge3" class="edge">
<title>LIBS&#45;&gt;RT</title>
<path fill="none" stroke="black" d="M229,-577.81C229,-570.23 229,-561.1 229,-552.54"/>
<polygon fill="black" stroke="black" points="232.5,-552.54 229,-542.54 225.5,-552.54 232.5,-552.54"/>
</g>
<!-- DRV -->
<g id="node5" class="node">
<title>DRV</title>
<path fill="#eef3fb" stroke="black" d="M305.25,-468C305.25,-468 152.75,-468 152.75,-468 146.75,-468 140.75,-462 140.75,-456 140.75,-456 140.75,-444 140.75,-444 140.75,-438 146.75,-432 152.75,-432 152.75,-432 305.25,-432 305.25,-432 311.25,-432 317.25,-438 317.25,-444 317.25,-444 317.25,-456 317.25,-456 317.25,-462 311.25,-468 305.25,-468"/>
<text xml:space="preserve" text-anchor="middle" x="229" y="-446.5" font-family="Helvetica,sans-Serif" font-size="10.00">libcuda.so &#160;(Driver API — WSL stub)</text>
</g>
<!-- RT&#45;&gt;DRV -->
<g id="edge4" class="edge">
<title>RT&#45;&gt;DRV</title>
<path fill="none" stroke="black" d="M229,-504.81C229,-497.23 229,-488.1 229,-479.54"/>
<polygon fill="black" stroke="black" points="232.5,-479.54 229,-469.54 225.5,-479.54 232.5,-479.54"/>
</g>
<!-- PASS -->
<g id="node6" class="node">
<title>PASS</title>
<path fill="#eaf1fb" stroke="black" d="M343.88,-395C343.88,-395 114.12,-395 114.12,-395 108.12,-395 102.12,-389 102.12,-383 102.12,-383 102.12,-371 102.12,-371 102.12,-365 108.12,-359 114.12,-359 114.12,-359 343.88,-359 343.88,-359 349.88,-359 355.88,-365 355.88,-371 355.88,-371 355.88,-383 355.88,-383 355.88,-389 349.88,-395 343.88,-395"/>
<text xml:space="preserve" text-anchor="middle" x="229" y="-379.5" font-family="Helvetica,sans-Serif" font-size="10.00">/dev/dxg → VMBus → Windows host driver (GPU&#45;PV)</text>
<text xml:space="preserve" text-anchor="middle" x="229" y="-367.5" font-family="Helvetica,sans-Serif" font-size="10.00">see windows_gpu_architecture_notes</text>
</g>
<!-- DRV&#45;&gt;PASS -->
<g id="edge5" class="edge">
<title>DRV&#45;&gt;PASS</title>
<path fill="none" stroke="black" d="M229,-431.81C229,-424.23 229,-415.1 229,-406.54"/>
<polygon fill="black" stroke="black" points="232.5,-406.54 229,-396.54 225.5,-406.54 232.5,-406.54"/>
</g>
<!-- SCHED -->
<g id="node7" class="node">
<title>SCHED</title>
<path fill="#eef3fb" stroke="black" d="M318.38,-299.5C318.38,-299.5 139.62,-299.5 139.62,-299.5 133.62,-299.5 127.62,-293.5 127.62,-287.5 127.62,-287.5 127.62,-275.5 127.62,-275.5 127.62,-269.5 133.62,-263.5 139.62,-263.5 139.62,-263.5 318.38,-263.5 318.38,-263.5 324.38,-263.5 330.38,-269.5 330.38,-275.5 330.38,-275.5 330.38,-287.5 330.38,-287.5 330.38,-293.5 324.38,-299.5 318.38,-299.5"/>
<text xml:space="preserve" text-anchor="middle" x="229" y="-284" font-family="Helvetica,sans-Serif" font-size="10.00">GigaThread scheduler</text>
<text xml:space="preserve" text-anchor="middle" x="229" y="-272" font-family="Helvetica,sans-Serif" font-size="10.00">grid → thread blocks → warps (32 threads)</text>
</g>
<!-- PASS&#45;&gt;SCHED -->
<g id="edge6" class="edge">
<title>PASS&#45;&gt;SCHED</title>
<path fill="none" stroke="black" d="M229,-358.85C229,-345.49 229,-326.65 229,-311.03"/>
<polygon fill="black" stroke="black" points="232.5,-311.37 229,-301.37 225.5,-311.37 232.5,-311.37"/>
</g>
<!-- SM -->
<g id="node8" class="node">
<title>SM</title>
<path fill="#eef3fb" stroke="black" d="M321.38,-217C321.38,-217 136.62,-217 136.62,-217 130.62,-217 124.62,-211 124.62,-205 124.62,-205 124.62,-193 124.62,-193 124.62,-187 130.62,-181 136.62,-181 136.62,-181 321.38,-181 321.38,-181 327.38,-181 333.38,-187 333.38,-193 333.38,-193 333.38,-205 333.38,-205 333.38,-211 327.38,-217 321.38,-217"/>
<text xml:space="preserve" text-anchor="middle" x="229" y="-201.5" font-family="Helvetica,sans-Serif" font-size="10.00">Streaming Multiprocessors</text>
<text xml:space="preserve" text-anchor="middle" x="229" y="-189.5" font-family="Helvetica,sans-Serif" font-size="10.00">CUDA cores + 5th&#45;gen Tensor Cores (MMA)</text>
</g>
<!-- SCHED&#45;&gt;SM -->
<g id="edge7" class="edge">
<title>SCHED&#45;&gt;SM</title>
<path fill="none" stroke="black" d="M229,-263.03C229,-253.01 229,-240.18 229,-228.71"/>
<polygon fill="black" stroke="black" points="232.5,-228.95 229,-218.95 225.5,-228.95 232.5,-228.95"/>
<text xml:space="preserve" text-anchor="middle" x="256" y="-236.95" font-family="Helvetica,sans-Serif" font-size="9.00">loads / stores</text>
</g>
<!-- MEM -->
<g id="node9" class="node">
<title>MEM</title>
<path fill="#eef3fb" stroke="black" d="M233.5,-134.5C233.5,-134.5 28.5,-134.5 28.5,-134.5 22.5,-134.5 16.5,-128.5 16.5,-122.5 16.5,-122.5 16.5,-110.5 16.5,-110.5 16.5,-104.5 22.5,-98.5 28.5,-98.5 28.5,-98.5 233.5,-98.5 233.5,-98.5 239.5,-98.5 245.5,-104.5 245.5,-110.5 245.5,-110.5 245.5,-122.5 245.5,-122.5 245.5,-128.5 239.5,-134.5 233.5,-134.5"/>
<text xml:space="preserve" text-anchor="middle" x="131" y="-113" font-family="Helvetica,sans-Serif" font-size="10.00">per&#45;SM: registers · L1 / shared mem → L2 cache</text>
</g>
<!-- SM&#45;&gt;MEM -->
<g id="edge8" class="edge">
<title>SM&#45;&gt;MEM</title>
<path fill="none" stroke="black" d="M207.74,-180.53C193.99,-169.25 175.91,-154.39 160.76,-141.94"/>
<polygon fill="black" stroke="black" points="163.34,-139.54 153.39,-135.89 158.9,-144.95 163.34,-139.54"/>
<text xml:space="preserve" text-anchor="middle" x="212.87" y="-154.45" font-family="Helvetica,sans-Serif" font-size="9.00">loads / stores</text>
</g>
<!-- VRAM -->
<g id="node10" class="node">
<title>VRAM</title>
<path fill="#ffe9cc" stroke="black" d="M294.88,-52C294.88,-52 119.12,-52 119.12,-52 113.12,-52 107.12,-46 107.12,-40 107.12,-40 107.12,-28 107.12,-28 107.12,-22 113.12,-16 119.12,-16 119.12,-16 294.88,-16 294.88,-16 300.88,-16 306.88,-22 306.88,-28 306.88,-28 306.88,-40 306.88,-40 306.88,-46 300.88,-52 294.88,-52"/>
<text xml:space="preserve" text-anchor="middle" x="207" y="-30.5" font-family="Helvetica,sans-Serif" font-size="10.00">16 GB GDDR7 — global memory / VRAM</text>
</g>
<!-- MEM&#45;&gt;VRAM -->
<g id="edge9" class="edge">
<title>MEM&#45;&gt;VRAM</title>
<path fill="none" stroke="black" d="M147.49,-98.03C157.85,-87.06 171.38,-72.72 182.93,-60.5"/>
<polygon fill="black" stroke="black" points="185.18,-63.21 189.5,-53.53 180.09,-58.4 185.18,-63.21"/>
<text xml:space="preserve" text-anchor="middle" x="200.55" y="-71.95" font-family="Helvetica,sans-Serif" font-size="9.00">loads / stores</text>
</g>
<!-- VRAM&#45;&gt;SM -->
<g id="edge10" class="edge">
<title>VRAM&#45;&gt;SM</title>
<path fill="none" stroke="black" stroke-dasharray="5,2" d="M225.06,-52.29C236.04,-64.12 249.07,-80.81 255,-98.5 263.04,-122.46 254.24,-150.35 244.76,-170.49"/>
<polygon fill="black" stroke="black" points="241.75,-168.68 240.36,-179.18 248,-171.84 241.75,-168.68"/>
<text xml:space="preserve" text-anchor="middle" x="320.4" y="-118.45" font-family="Helvetica,sans-Serif" font-size="9.00">H2D inputs staged here;</text>
<text xml:space="preserve" text-anchor="middle" x="320.4" y="-107.95" font-family="Helvetica,sans-Serif" font-size="9.00">results held until .cpu() → D2H</text>
</g>
</g>
</svg>
