<?xml version="1.0" encoding="UTF-8" standalone="no"?>
<!DOCTYPE svg PUBLIC "-//W3C//DTD SVG 1.1//EN"
 "http://www.w3.org/Graphics/SVG/1.1/DTD/svg11.dtd">
<!-- Generated by graphviz version 15.0.0 (20260523.1842)
 -->
<!-- Title: gpu_runtimes Pages: 1 -->
<svg width="483pt" height="417pt"
 viewBox="0.00 0.00 483.00 417.00" xmlns="http://www.w3.org/2000/svg" xmlns:xlink="http://www.w3.org/1999/xlink">
<g id="graph0" class="graph" transform="scale(1 1) rotate(0) translate(4 412.5)">
<title>gpu_runtimes</title>
<polygon fill="white" stroke="none" points="-4,4 -4,-412.5 479,-412.5 479,4 -4,4"/>
<g id="clust1" class="cluster">
<title>cluster_native</title>
<polygon fill="#f5f9ff" stroke="#9bbce8" points="8,-147.5 8,-232 230,-232 230,-147.5 8,-147.5"/>
<text xml:space="preserve" text-anchor="middle" x="119" y="-214.7" font-family="Times New Roman,serif" font-size="14.00">A · Native Windows</text>
</g>
<g id="clust2" class="cluster">
<title>cluster_wsl</title>
<polygon fill="#f3fbf5" stroke="#7bb37b" points="101,-251 101,-400.5 279,-400.5 279,-251 101,-251"/>
<text xml:space="preserve" text-anchor="middle" x="190" y="-383.2" font-family="Times New Roman,serif" font-size="14.00">B · WSL2 + venv (our path)</text>
</g>
<g id="clust3" class="cluster">
<title>cluster_docker</title>
<polygon fill="#fff6ea" stroke="#e0a35c" points="287,-251 287,-400.5 467,-400.5 467,-251 287,-251"/>
<text xml:space="preserve" text-anchor="middle" x="377" y="-383.2" font-family="Times New Roman,serif" font-size="14.00">C · WSL2 + Docker</text>
</g>
<!-- NW -->
<g id="node1" class="node">
<title>NW</title>
<path fill="#fde8e8" stroke="black" d="M209.88,-199.5C209.88,-199.5 28.12,-199.5 28.12,-199.5 22.12,-199.5 16.12,-193.5 16.12,-187.5 16.12,-187.5 16.12,-167.5 16.12,-167.5 16.12,-161.5 22.12,-155.5 28.12,-155.5 28.12,-155.5 209.88,-155.5 209.88,-155.5 215.88,-155.5 221.88,-161.5 221.88,-167.5 221.88,-167.5 221.88,-187.5 221.88,-187.5 221.88,-193.5 215.88,-199.5 209.88,-199.5"/>
<text xml:space="preserve" text-anchor="middle" x="119" y="-186" font-family="Helvetica,sans-Serif" font-size="10.00">Python (Windows)</text>
<text xml:space="preserve" text-anchor="middle" x="119" y="-174" font-family="Helvetica,sans-Serif" font-size="10.00">PyTorch cu128 wheels</text>
<text xml:space="preserve" text-anchor="middle" x="119" y="-162" font-family="Helvetica,sans-Serif" font-size="10.00">unsupported: decord / pyrender / detectron2</text>
</g>
<!-- HOST -->
<g id="node7" class="node">
<title>HOST</title>
<path fill="#eaf1fb" stroke="black" d="M275,-109C275,-109 157,-109 157,-109 151,-109 145,-103 145,-97 145,-97 145,-85 145,-85 145,-79 151,-73 157,-73 157,-73 275,-73 275,-73 281,-73 287,-79 287,-85 287,-85 287,-97 287,-97 287,-103 281,-109 275,-109"/>
<text xml:space="preserve" text-anchor="middle" x="216" y="-93.5" font-family="Helvetica,sans-Serif" font-size="10.00">Windows host driver</text>
<text xml:space="preserve" text-anchor="middle" x="216" y="-81.5" font-family="Helvetica,sans-Serif" font-size="10.00">dxgkrnl.sys + nvlddmkm.sys</text>
</g>
<!-- NW&#45;&gt;HOST -->
<g id="edge1" class="edge">
<title>NW&#45;&gt;HOST</title>
<path fill="none" stroke="black" d="M143.48,-155.18C156.96,-143.44 173.75,-128.81 187.78,-116.59"/>
<polygon fill="black" stroke="black" points="189.72,-119.54 194.96,-110.33 185.12,-114.26 189.72,-119.54"/>
<text xml:space="preserve" text-anchor="middle" x="213.43" y="-128.95" font-family="Helvetica,sans-Serif" font-size="9.00">direct — no VM hop</text>
</g>
<!-- WV -->
<g id="node2" class="node">
<title>WV</title>
<path fill="#eef3fb" stroke="black" d="M258.75,-368C258.75,-368 121.25,-368 121.25,-368 115.25,-368 109.25,-362 109.25,-356 109.25,-356 109.25,-344 109.25,-344 109.25,-338 115.25,-332 121.25,-332 121.25,-332 258.75,-332 258.75,-332 264.75,-332 270.75,-338 270.75,-344 270.75,-344 270.75,-356 270.75,-356 270.75,-362 264.75,-368 258.75,-368"/>
<text xml:space="preserve" text-anchor="middle" x="190" y="-352.5" font-family="Helvetica,sans-Serif" font-size="10.00">Python venv — Ubuntu 24.04</text>
<text xml:space="preserve" text-anchor="middle" x="190" y="-340.5" font-family="Helvetica,sans-Serif" font-size="10.00">PyTorch cu128 + Linux&#45;only deps</text>
</g>
<!-- WL -->
<g id="node3" class="node">
<title>WL</title>
<path fill="#eef3fb" stroke="black" d="M249,-295C249,-295 191,-295 191,-295 185,-295 179,-289 179,-283 179,-283 179,-271 179,-271 179,-265 185,-259 191,-259 191,-259 249,-259 249,-259 255,-259 261,-265 261,-271 261,-271 261,-283 261,-283 261,-289 255,-295 249,-295"/>
<text xml:space="preserve" text-anchor="middle" x="220" y="-279.5" font-family="Helvetica,sans-Serif" font-size="10.00">libcuda.so stub</text>
<text xml:space="preserve" text-anchor="middle" x="220" y="-267.5" font-family="Helvetica,sans-Serif" font-size="10.00">/usr/lib/wsl/lib</text>
</g>
<!-- WV&#45;&gt;WL -->
<g id="edge2" class="edge">
<title>WV&#45;&gt;WL</title>
<path fill="none" stroke="black" d="M197.26,-331.81C200.62,-323.88 204.68,-314.26 208.44,-305.36"/>
<polygon fill="black" stroke="black" points="211.55,-307 212.22,-296.42 205.1,-304.27 211.55,-307"/>
</g>
<!-- DXG -->
<g id="node6" class="node">
<title>DXG</title>
<path fill="#eef3fb" stroke="black" d="M378.12,-195.5C378.12,-195.5 251.88,-195.5 251.88,-195.5 245.88,-195.5 239.88,-189.5 239.88,-183.5 239.88,-183.5 239.88,-171.5 239.88,-171.5 239.88,-165.5 245.88,-159.5 251.88,-159.5 251.88,-159.5 378.12,-159.5 378.12,-159.5 384.12,-159.5 390.12,-165.5 390.12,-171.5 390.12,-171.5 390.12,-183.5 390.12,-183.5 390.12,-189.5 384.12,-195.5 378.12,-195.5"/>
<text xml:space="preserve" text-anchor="middle" x="315" y="-174" font-family="Helvetica,sans-Serif" font-size="10.00">/dev/dxg &#160;(dxgkrnl Linux driver)</text>
</g>
<!-- WL&#45;&gt;DXG -->
<g id="edge3" class="edge">
<title>WL&#45;&gt;DXG</title>
<path fill="none" stroke="black" d="M236.98,-258.57C251.84,-243.32 273.61,-220.97 290.38,-203.76"/>
<polygon fill="black" stroke="black" points="292.63,-206.47 297.11,-196.86 287.62,-201.58 292.63,-206.47"/>
</g>
<!-- DC -->
<g id="node4" class="node">
<title>DC</title>
<path fill="#eef3fb" stroke="black" d="M446.88,-368C446.88,-368 307.12,-368 307.12,-368 301.12,-368 295.12,-362 295.12,-356 295.12,-356 295.12,-344 295.12,-344 295.12,-338 301.12,-332 307.12,-332 307.12,-332 446.88,-332 446.88,-332 452.88,-332 458.88,-338 458.88,-344 458.88,-344 458.88,-356 458.88,-356 458.88,-362 452.88,-368 446.88,-368"/>
<text xml:space="preserve" text-anchor="middle" x="377" y="-352.5" font-family="Helvetica,sans-Serif" font-size="10.00">CUDA container</text>
<text xml:space="preserve" text-anchor="middle" x="377" y="-340.5" font-family="Helvetica,sans-Serif" font-size="10.00">(Dockerfile · docker run &#45;&#45;gpus all)</text>
</g>
<!-- NCT -->
<g id="node5" class="node">
<title>NCT</title>
<path fill="#eef3fb" stroke="black" d="M417.75,-295C417.75,-295 316.25,-295 316.25,-295 310.25,-295 304.25,-289 304.25,-283 304.25,-283 304.25,-271 304.25,-271 304.25,-265 310.25,-259 316.25,-259 316.25,-259 417.75,-259 417.75,-259 423.75,-259 429.75,-265 429.75,-271 429.75,-271 429.75,-283 429.75,-283 429.75,-289 423.75,-295 417.75,-295"/>
<text xml:space="preserve" text-anchor="middle" x="367" y="-279.5" font-family="Helvetica,sans-Serif" font-size="10.00">NVIDIA Container Toolkit</text>
<text xml:space="preserve" text-anchor="middle" x="367" y="-267.5" font-family="Helvetica,sans-Serif" font-size="10.00">+ libcuda stub injected</text>
</g>
<!-- DC&#45;&gt;NCT -->
<g id="edge4" class="edge">
<title>DC&#45;&gt;NCT</title>
<path fill="none" stroke="black" d="M374.58,-331.81C373.5,-324.14 372.2,-314.89 370.98,-306.24"/>
<polygon fill="black" stroke="black" points="374.47,-305.94 369.61,-296.53 367.54,-306.92 374.47,-305.94"/>
</g>
<!-- NCT&#45;&gt;DXG -->
<g id="edge5" class="edge">
<title>NCT&#45;&gt;DXG</title>
<path fill="none" stroke="black" d="M357.7,-258.57C349.87,-243.87 338.51,-222.59 329.49,-205.66"/>
<polygon fill="black" stroke="black" points="332.72,-204.29 324.93,-197.12 326.55,-207.59 332.72,-204.29"/>
</g>
<!-- DXG&#45;&gt;HOST -->
<g id="edge6" class="edge">
<title>DXG&#45;&gt;HOST</title>
<path fill="none" stroke="black" d="M295.3,-159.22C284.36,-149.67 270.48,-137.62 258,-127 254.07,-123.66 249.92,-120.16 245.81,-116.72"/>
<polygon fill="black" stroke="black" points="248.09,-114.06 238.17,-110.33 243.6,-119.43 248.09,-114.06"/>
<text xml:space="preserve" text-anchor="middle" x="304.23" y="-128.95" font-family="Helvetica,sans-Serif" font-size="9.00">VMBus / GPU&#45;PV</text>
</g>
<!-- GPU -->
<g id="node8" class="node">
<title>GPU</title>
<path fill="#ffe9cc" stroke="black" d="M286.62,-36C286.62,-36 145.38,-36 145.38,-36 139.38,-36 133.38,-30 133.38,-24 133.38,-24 133.38,-12 133.38,-12 133.38,-6 139.38,0 145.38,0 145.38,0 286.62,0 286.62,0 292.62,0 298.62,-6 298.62,-12 298.62,-12 298.62,-24 298.62,-24 298.62,-30 292.62,-36 286.62,-36"/>
<text xml:space="preserve" text-anchor="middle" x="216" y="-14.5" font-family="Helvetica,sans-Serif" font-size="10.00">RTX 5070 Ti — Blackwell sm_120</text>
</g>
<!-- HOST&#45;&gt;GPU -->
<g id="edge7" class="edge">
<title>HOST&#45;&gt;GPU</title>
<path fill="none" stroke="black" d="M216,-72.81C216,-65.23 216,-56.1 216,-47.54"/>
<polygon fill="black" stroke="black" points="219.5,-47.54 216,-37.54 212.5,-47.54 219.5,-47.54"/>
</g>
</g>
</svg>
