<?xml version="1.0" encoding="UTF-8" standalone="no"?>
<!DOCTYPE svg PUBLIC "-//W3C//DTD SVG 1.1//EN"
 "http://www.w3.org/Graphics/SVG/1.1/DTD/svg11.dtd">
<!-- Generated by graphviz version 15.0.0 (20260523.1842)
 -->
<!-- Title: git_lfs_flow Pages: 1 -->
<svg width="1567pt" height="206pt"
 viewBox="0.00 0.00 1567.00 206.00" xmlns="http://www.w3.org/2000/svg" xmlns:xlink="http://www.w3.org/1999/xlink">
<g id="graph0" class="graph" transform="scale(1 1) rotate(0) translate(4 201.64)">
<title>git_lfs_flow</title>
<polygon fill="white" stroke="none" points="-4,4 -4,-201.64 1562.75,-201.64 1562.75,4 -4,4"/>
<g id="clust1" class="cluster">
<title>cluster_mac</title>
<polygon fill="#f3fbf5" stroke="#7bb37b" points="8,-112.64 8,-189.64 825.25,-189.64 825.25,-112.64 8,-112.64"/>
<text xml:space="preserve" text-anchor="middle" x="416.62" y="-172.34" font-family="Times New Roman,serif" font-size="14.00">Mac (author)</text>
</g>
<g id="clust2" class="cluster">
<title>cluster_srv</title>
<polygon fill="#fff6ea" stroke="#e0a35c" points="846.25,-112.64 846.25,-189.64 984,-189.64 984,-112.64 846.25,-112.64"/>
<text xml:space="preserve" text-anchor="middle" x="915.12" y="-172.34" font-family="Times New Roman,serif" font-size="14.00">GitHub + LFS store</text>
</g>
<g id="clust3" class="cluster">
<title>cluster_win</title>
<polygon fill="#f5f9ff" stroke="#9bbce8" points="857.88,-27.64 857.88,-104.64 1550.75,-104.64 1550.75,-27.64 857.88,-27.64"/>
<text xml:space="preserve" text-anchor="middle" x="1204.31" y="-87.34" font-family="Times New Roman,serif" font-size="14.00">Windows PC (this machine)</text>
</g>
<!-- A1 -->
<g id="node1" class="node">
<title>A1</title>
<path fill="#eef3fb" stroke="black" d="M242,-156.64C242,-156.64 28,-156.64 28,-156.64 22,-156.64 16,-150.64 16,-144.64 16,-144.64 16,-132.64 16,-132.64 16,-126.64 22,-120.64 28,-120.64 28,-120.64 242,-120.64 242,-120.64 248,-120.64 254,-126.64 254,-132.64 254,-132.64 254,-144.64 254,-144.64 254,-150.64 248,-156.64 242,-156.64"/>
<text xml:space="preserve" text-anchor="middle" x="135" y="-141.14" font-family="Helvetica,sans-Serif" font-size="10.00">git lfs install</text>
<text xml:space="preserve" text-anchor="middle" x="135" y="-129.14" font-family="Helvetica,sans-Serif" font-size="10.00">(register clean/smudge filters — once per machine)</text>
</g>
<!-- A2 -->
<g id="node2" class="node">
<title>A2</title>
<path fill="#eef3fb" stroke="black" d="M390.25,-156.64C390.25,-156.64 303,-156.64 303,-156.64 297,-156.64 291,-150.64 291,-144.64 291,-144.64 291,-132.64 291,-132.64 291,-126.64 297,-120.64 303,-120.64 303,-120.64 390.25,-120.64 390.25,-120.64 396.25,-120.64 402.25,-126.64 402.25,-132.64 402.25,-132.64 402.25,-144.64 402.25,-144.64 402.25,-150.64 396.25,-156.64 390.25,-156.64"/>
<text xml:space="preserve" text-anchor="middle" x="346.62" y="-141.14" font-family="Helvetica,sans-Serif" font-size="10.00">git lfs track &quot;*.mp4&quot;</text>
<text xml:space="preserve" text-anchor="middle" x="346.62" y="-129.14" font-family="Helvetica,sans-Serif" font-size="10.00">&#45;&gt; writes .gitattributes</text>
</g>
<!-- A1&#45;&gt;A2 -->
<g id="edge1" class="edge">
<title>A1&#45;&gt;A2</title>
<path fill="none" stroke="black" d="M254.29,-138.64C262.78,-138.64 271.14,-138.64 279.16,-138.64"/>
<polygon fill="black" stroke="black" points="279.12,-142.14 289.12,-138.64 279.12,-135.14 279.12,-142.14"/>
</g>
<!-- A3 -->
<g id="node3" class="node">
<title>A3</title>
<path fill="#eef3fb" stroke="black" d="M592.5,-156.64C592.5,-156.64 451.25,-156.64 451.25,-156.64 445.25,-156.64 439.25,-150.64 439.25,-144.64 439.25,-144.64 439.25,-132.64 439.25,-132.64 439.25,-126.64 445.25,-120.64 451.25,-120.64 451.25,-120.64 592.5,-120.64 592.5,-120.64 598.5,-120.64 604.5,-126.64 604.5,-132.64 604.5,-132.64 604.5,-144.64 604.5,-144.64 604.5,-150.64 598.5,-156.64 592.5,-156.64"/>
<text xml:space="preserve" text-anchor="middle" x="521.88" y="-141.14" font-family="Helvetica,sans-Serif" font-size="10.00">git add data/video.mp4</text>
<text xml:space="preserve" text-anchor="middle" x="521.88" y="-129.14" font-family="Helvetica,sans-Serif" font-size="10.00">git commit &#160;&#160;(pointer is committed)</text>
</g>
<!-- A2&#45;&gt;A3 -->
<g id="edge2" class="edge">
<title>A2&#45;&gt;A3</title>
<path fill="none" stroke="black" d="M402.44,-138.64C410.51,-138.64 419,-138.64 427.58,-138.64"/>
<polygon fill="black" stroke="black" points="427.37,-142.14 437.37,-138.64 427.37,-135.14 427.37,-142.14"/>
</g>
<!-- A4 -->
<g id="node4" class="node">
<title>A4</title>
<path fill="#eef3fb" stroke="black" d="M805.25,-156.64C805.25,-156.64 653.5,-156.64 653.5,-156.64 647.5,-156.64 641.5,-150.64 641.5,-144.64 641.5,-144.64 641.5,-132.64 641.5,-132.64 641.5,-126.64 647.5,-120.64 653.5,-120.64 653.5,-120.64 805.25,-120.64 805.25,-120.64 811.25,-120.64 817.25,-126.64 817.25,-132.64 817.25,-132.64 817.25,-144.64 817.25,-144.64 817.25,-150.64 811.25,-156.64 805.25,-156.64"/>
<text xml:space="preserve" text-anchor="middle" x="729.38" y="-141.14" font-family="Helvetica,sans-Serif" font-size="10.00">git push</text>
<text xml:space="preserve" text-anchor="middle" x="729.38" y="-129.14" font-family="Helvetica,sans-Serif" font-size="10.00">pointer &#45;&gt; GitHub · blob &#45;&gt; LFS store</text>
</g>
<!-- A3&#45;&gt;A4 -->
<g id="edge3" class="edge">
<title>A3&#45;&gt;A4</title>
<path fill="none" stroke="black" d="M604.98,-138.64C613.13,-138.64 621.45,-138.64 629.75,-138.64"/>
<polygon fill="black" stroke="black" points="629.5,-142.14 639.5,-138.64 629.5,-135.14 629.5,-142.14"/>
</g>
<!-- S -->
<g id="node5" class="node">
<title>S</title>
<path fill="#eef3fb" stroke="black" d="M964,-156.64C964,-156.64 866.25,-156.64 866.25,-156.64 860.25,-156.64 854.25,-150.64 854.25,-144.64 854.25,-144.64 854.25,-132.64 854.25,-132.64 854.25,-126.64 860.25,-120.64 866.25,-120.64 866.25,-120.64 964,-120.64 964,-120.64 970,-120.64 976,-126.64 976,-132.64 976,-132.64 976,-144.64 976,-144.64 976,-150.64 970,-156.64 964,-156.64"/>
<text xml:space="preserve" text-anchor="middle" x="915.12" y="-141.14" font-family="Helvetica,sans-Serif" font-size="10.00">Git: commits + pointers</text>
<text xml:space="preserve" text-anchor="middle" x="915.12" y="-129.14" font-family="Helvetica,sans-Serif" font-size="10.00">LFS: blobs keyed by oid</text>
</g>
<!-- A4&#45;&gt;S -->
<g id="edge4" class="edge">
<title>A4&#45;&gt;S</title>
<path fill="none" stroke="black" d="M817.68,-138.64C825.98,-138.64 834.34,-138.64 842.48,-138.64"/>
<polygon fill="black" stroke="black" points="842.29,-142.14 852.29,-138.64 842.29,-135.14 842.29,-142.14"/>
</g>
<!-- W2 -->
<g id="node7" class="node">
<title>W2</title>
<path fill="#eef3fb" stroke="black" d="M1152.5,-71.64C1152.5,-71.64 1055.5,-71.64 1055.5,-71.64 1049.5,-71.64 1043.5,-65.64 1043.5,-59.64 1043.5,-59.64 1043.5,-47.64 1043.5,-47.64 1043.5,-41.64 1049.5,-35.64 1055.5,-35.64 1055.5,-35.64 1152.5,-35.64 1152.5,-35.64 1158.5,-35.64 1164.5,-41.64 1164.5,-47.64 1164.5,-47.64 1164.5,-59.64 1164.5,-59.64 1164.5,-65.64 1158.5,-71.64 1152.5,-71.64"/>
<text xml:space="preserve" text-anchor="middle" x="1104" y="-56.14" font-family="Helvetica,sans-Serif" font-size="10.00">git clone / git pull</text>
<text xml:space="preserve" text-anchor="middle" x="1104" y="-44.14" font-family="Helvetica,sans-Serif" font-size="10.00">&#45;&gt; pointers arrive via Git</text>
</g>
<!-- S&#45;&gt;W2 -->
<g id="edge8" class="edge">
<title>S&#45;&gt;W2</title>
<path fill="none" stroke="black" d="M976.42,-120.99C992.65,-115.5 1010,-108.94 1025.5,-101.64 1039.65,-94.97 1054.42,-86.3 1067.23,-78.17"/>
<polygon fill="black" stroke="black" points="1068.84,-81.29 1075.32,-72.91 1065.03,-75.42 1068.84,-81.29"/>
<text xml:space="preserve" text-anchor="middle" x="1009.75" y="-115.84" font-family="Helvetica,sans-Serif" font-size="9.00">git fetch</text>
</g>
<!-- W3 -->
<g id="node8" class="node">
<title>W3</title>
<path fill="#eef3fb" stroke="black" d="M1351.75,-71.64C1351.75,-71.64 1213.5,-71.64 1213.5,-71.64 1207.5,-71.64 1201.5,-65.64 1201.5,-59.64 1201.5,-59.64 1201.5,-47.64 1201.5,-47.64 1201.5,-41.64 1207.5,-35.64 1213.5,-35.64 1213.5,-35.64 1351.75,-35.64 1351.75,-35.64 1357.75,-35.64 1363.75,-41.64 1363.75,-47.64 1363.75,-47.64 1363.75,-59.64 1363.75,-59.64 1363.75,-65.64 1357.75,-71.64 1351.75,-71.64"/>
<text xml:space="preserve" text-anchor="middle" x="1282.62" y="-56.14" font-family="Helvetica,sans-Serif" font-size="10.00">smudge filter (auto) or `git lfs pull`</text>
<text xml:space="preserve" text-anchor="middle" x="1282.62" y="-44.14" font-family="Helvetica,sans-Serif" font-size="10.00">&#45;&gt; downloads blobs by oid</text>
</g>
<!-- S&#45;&gt;W3 -->
<g id="edge9" class="edge">
<title>S&#45;&gt;W3</title>
<path fill="none" stroke="black" stroke-dasharray="5,2" d="M967.04,-120.15C973.09,-116.82 978.91,-112.99 984,-108.64 1021.14,-76.86 1000.59,-39.56 1043.5,-16.14 1104.38,17.09 1186.22,-8.42 1236.38,-30.54"/>
<polygon fill="black" stroke="black" points="1234.65,-33.6 1245.2,-34.56 1237.55,-27.23 1234.65,-33.6"/>
<text xml:space="preserve" text-anchor="middle" x="1104" y="-18.09" font-family="Helvetica,sans-Serif" font-size="9.00">blob fetch by oid</text>
</g>
<!-- W1 -->
<g id="node6" class="node">
<title>W1</title>
<path fill="#eef3fb" stroke="black" d="M952.38,-71.64C952.38,-71.64 877.88,-71.64 877.88,-71.64 871.88,-71.64 865.88,-65.64 865.88,-59.64 865.88,-59.64 865.88,-47.64 865.88,-47.64 865.88,-41.64 871.88,-35.64 877.88,-35.64 877.88,-35.64 952.38,-35.64 952.38,-35.64 958.38,-35.64 964.38,-41.64 964.38,-47.64 964.38,-47.64 964.38,-59.64 964.38,-59.64 964.38,-65.64 958.38,-71.64 952.38,-71.64"/>
<text xml:space="preserve" text-anchor="middle" x="915.12" y="-50.14" font-family="Helvetica,sans-Serif" font-size="10.00">git lfs install (once)</text>
</g>
<!-- W1&#45;&gt;W2 -->
<g id="edge5" class="edge">
<title>W1&#45;&gt;W2</title>
<path fill="none" stroke="black" d="M964.74,-53.64C985.27,-53.64 1009.6,-53.64 1032.08,-53.64"/>
<polygon fill="black" stroke="black" points="1031.77,-57.14 1041.77,-53.64 1031.77,-50.14 1031.77,-57.14"/>
</g>
<!-- W2&#45;&gt;W3 -->
<g id="edge6" class="edge">
<title>W2&#45;&gt;W3</title>
<path fill="none" stroke="black" d="M1164.8,-53.64C1172.94,-53.64 1181.44,-53.64 1189.99,-53.64"/>
<polygon fill="black" stroke="black" points="1189.71,-57.14 1199.7,-53.64 1189.7,-50.14 1189.71,-57.14"/>
</g>
<!-- W4 -->
<g id="node9" class="node">
<title>W4</title>
<path fill="#fff6cc" stroke="black" d="M1530.75,-71.64C1530.75,-71.64 1412.75,-71.64 1412.75,-71.64 1406.75,-71.64 1400.75,-65.64 1400.75,-59.64 1400.75,-59.64 1400.75,-47.64 1400.75,-47.64 1400.75,-41.64 1406.75,-35.64 1412.75,-35.64 1412.75,-35.64 1530.75,-35.64 1530.75,-35.64 1536.75,-35.64 1542.75,-41.64 1542.75,-47.64 1542.75,-47.64 1542.75,-59.64 1542.75,-59.64 1542.75,-65.64 1536.75,-71.64 1530.75,-71.64"/>
<text xml:space="preserve" text-anchor="middle" x="1471.75" y="-56.14" font-family="Helvetica,sans-Serif" font-size="10.00">data/video.mp4 reconstituted</text>
<text xml:space="preserve" text-anchor="middle" x="1471.75" y="-44.14" font-family="Helvetica,sans-Serif" font-size="10.00">(real bytes in working tree)</text>
</g>
<!-- W3&#45;&gt;W4 -->
<g id="edge7" class="edge">
<title>W3&#45;&gt;W4</title>
<path fill="none" stroke="black" d="M1364.07,-53.64C1372.38,-53.64 1380.83,-53.64 1389.15,-53.64"/>
<polygon fill="black" stroke="black" points="1388.88,-57.14 1398.88,-53.64 1388.88,-50.14 1388.88,-57.14"/>
</g>
</g>
</svg>
