<?xml version="1.0" encoding="UTF-8" standalone="no"?>
<!DOCTYPE svg PUBLIC "-//W3C//DTD SVG 1.1//EN"
 "http://www.w3.org/Graphics/SVG/1.1/DTD/svg11.dtd">
<!-- Generated by graphviz version 15.0.0 (20260523.1842)
 -->
<!-- Title: git_lfs_model Pages: 1 -->
<svg width="1085pt" height="186pt"
 viewBox="0.00 0.00 1085.00 186.00" xmlns="http://www.w3.org/2000/svg" xmlns:xlink="http://www.w3.org/1999/xlink">
<g id="graph0" class="graph" transform="scale(1 1) rotate(0) translate(4 182.05)">
<title>git_lfs_model</title>
<polygon fill="white" stroke="none" points="-4,4 -4,-182.05 1080.62,-182.05 1080.62,4 -4,4"/>
<g id="clust1" class="cluster">
<title>cluster_wt</title>
<polygon fill="#f3fbf5" stroke="#7bb37b" points="1.88,-31.05 1.88,-108.05 203.12,-108.05 203.12,-31.05 1.88,-31.05"/>
<text xml:space="preserve" text-anchor="middle" x="102.5" y="-90.75" font-family="Times New Roman,serif" font-size="14.00">Working tree (what you edit/play)</text>
</g>
<g id="clust2" class="cluster">
<title>cluster_repo</title>
<polygon fill="#f5f9ff" stroke="#9bbce8" points="323.62,-30.05 323.62,-161.05 832.12,-161.05 832.12,-30.05 323.62,-30.05"/>
<text xml:space="preserve" text-anchor="middle" x="577.88" y="-143.75" font-family="Times New Roman,serif" font-size="14.00">Local Git repo (.git)</text>
</g>
<g id="clust3" class="cluster">
<title>cluster_remote</title>
<polygon fill="#fff6ea" stroke="#e0a35c" points="906.88,-39.05 906.88,-170.05 1068.62,-170.05 1068.62,-39.05 906.88,-39.05"/>
<text xml:space="preserve" text-anchor="middle" x="987.75" y="-152.75" font-family="Times New Roman,serif" font-size="14.00">Remotes</text>
</g>
<!-- VID -->
<g id="node1" class="node">
<title>VID</title>
<path fill="#fff6cc" stroke="black" d="M176,-75.05C176,-75.05 28,-75.05 28,-75.05 22,-75.05 16,-69.05 16,-63.05 16,-63.05 16,-51.05 16,-51.05 16,-45.05 22,-39.05 28,-39.05 28,-39.05 176,-39.05 176,-39.05 182,-39.05 188,-45.05 188,-51.05 188,-51.05 188,-63.05 188,-63.05 188,-69.05 182,-75.05 176,-75.05"/>
<text xml:space="preserve" text-anchor="middle" x="102" y="-60.1" font-family="Helvetica,sans-Serif" font-size="11.00">grip_front_1_cropped.mp4</text>
<text xml:space="preserve" text-anchor="middle" x="102" y="-46.6" font-family="Helvetica,sans-Serif" font-size="11.00">~hundreds of MB of REAL bytes</text>
</g>
<!-- PTR -->
<g id="node3" class="node">
<title>PTR</title>
<path fill="#eef3fb" stroke="black" d="M812.12,-86.3C812.12,-86.3 658.88,-86.3 658.88,-86.3 652.88,-86.3 646.88,-80.3 646.88,-74.3 646.88,-74.3 646.88,-49.8 646.88,-49.8 646.88,-43.8 652.88,-37.8 658.88,-37.8 658.88,-37.8 812.12,-37.8 812.12,-37.8 818.12,-37.8 824.12,-43.8 824.12,-49.8 824.12,-49.8 824.12,-74.3 824.12,-74.3 824.12,-80.3 818.12,-86.3 812.12,-86.3"/>
<text xml:space="preserve" text-anchor="middle" x="735.5" y="-71.85" font-family="Helvetica,sans-Serif" font-size="11.00">pointer file (~130 bytes)</text>
<text xml:space="preserve" text-anchor="middle" x="735.5" y="-58.35" font-family="Helvetica,sans-Serif" font-size="11.00">version + oid sha256:... + size</text>
<text xml:space="preserve" text-anchor="middle" x="735.5" y="-44.85" font-family="Helvetica,sans-Serif" font-size="11.00">THIS tiny text is what Git commits</text>
</g>
<!-- VID&#45;&gt;PTR -->
<g id="edge1" class="edge">
<title>VID&#45;&gt;PTR</title>
<path fill="none" stroke="black" d="M168.5,-38.55C212.06,-27.23 270.78,-13.84 323.62,-8.05 413.09,1.77 436.85,3.33 526.12,-8.05 566.61,-13.21 610.48,-23.79 647.48,-34.24"/>
<polygon fill="black" stroke="black" points="646.19,-37.51 656.77,-36.9 648.12,-30.78 646.19,-37.51"/>
<text xml:space="preserve" text-anchor="middle" x="428.88" y="-20.5" font-family="Helvetica,sans-Serif" font-size="9.00">clean filter on `git add`</text>
<text xml:space="preserve" text-anchor="middle" x="428.88" y="-10" font-family="Helvetica,sans-Serif" font-size="9.00">(swaps bytes &#45;&gt; pointer)</text>
</g>
<!-- LFSC -->
<g id="node4" class="node">
<title>LFSC</title>
<path fill="#eef3fb" stroke="black" d="M508.88,-128.05C508.88,-128.05 348.88,-128.05 348.88,-128.05 342.88,-128.05 336.88,-122.05 336.88,-116.05 336.88,-116.05 336.88,-104.05 336.88,-104.05 336.88,-98.05 342.88,-92.05 348.88,-92.05 348.88,-92.05 508.88,-92.05 508.88,-92.05 514.88,-92.05 520.88,-98.05 520.88,-104.05 520.88,-104.05 520.88,-116.05 520.88,-116.05 520.88,-122.05 514.88,-128.05 508.88,-128.05"/>
<text xml:space="preserve" text-anchor="middle" x="428.88" y="-113.1" font-family="Helvetica,sans-Serif" font-size="11.00">.git/lfs/objects/</text>
<text xml:space="preserve" text-anchor="middle" x="428.88" y="-99.6" font-family="Helvetica,sans-Serif" font-size="11.00">local LFS cache (real bytes, by oid)</text>
</g>
<!-- VID&#45;&gt;LFSC -->
<g id="edge2" class="edge">
<title>VID&#45;&gt;LFSC</title>
<path fill="none" stroke="black" stroke-dasharray="5,2" d="M188.36,-70.97C230.3,-77.81 281.16,-86.11 325.21,-93.3"/>
<polygon fill="black" stroke="black" points="324.62,-96.75 335.05,-94.9 325.75,-89.84 324.62,-96.75"/>
<text xml:space="preserve" text-anchor="middle" x="263.38" y="-93.34" font-family="Helvetica,sans-Serif" font-size="9.00">real bytes cached locally</text>
</g>
<!-- GATTR -->
<g id="node2" class="node">
<title>GATTR</title>
<path fill="#eef3fb" stroke="black" d="M514.12,-74.05C514.12,-74.05 343.62,-74.05 343.62,-74.05 337.62,-74.05 331.62,-68.05 331.62,-62.05 331.62,-62.05 331.62,-50.05 331.62,-50.05 331.62,-44.05 337.62,-38.05 343.62,-38.05 343.62,-38.05 514.12,-38.05 514.12,-38.05 520.12,-38.05 526.12,-44.05 526.12,-50.05 526.12,-50.05 526.12,-62.05 526.12,-62.05 526.12,-68.05 520.12,-74.05 514.12,-74.05"/>
<text xml:space="preserve" text-anchor="middle" x="428.88" y="-59.1" font-family="Helvetica,sans-Serif" font-size="11.00">.gitattributes</text>
<text xml:space="preserve" text-anchor="middle" x="428.88" y="-45.6" font-family="Helvetica,sans-Serif" font-size="11.00">*.mp4 filter=lfs diff=lfs merge=lfs &#45;text</text>
</g>
<!-- GATTR&#45;&gt;PTR -->
<g id="edge3" class="edge">
<title>GATTR&#45;&gt;PTR</title>
<path fill="none" stroke="black" stroke-dasharray="1,5" d="M526.26,-57.94C561.02,-58.63 600.29,-59.4 635.29,-60.09"/>
<polygon fill="black" stroke="black" points="634.91,-63.59 644.98,-60.28 635.05,-56.59 634.91,-63.59"/>
<text xml:space="preserve" text-anchor="middle" x="586.5" y="-61.88" font-family="Helvetica,sans-Serif" font-size="9.00">rule that triggers LFS</text>
</g>
<!-- GH -->
<g id="node5" class="node">
<title>GH</title>
<path fill="#eef3fb" stroke="black" d="M1048.62,-83.05C1048.62,-83.05 926.88,-83.05 926.88,-83.05 920.88,-83.05 914.88,-77.05 914.88,-71.05 914.88,-71.05 914.88,-59.05 914.88,-59.05 914.88,-53.05 920.88,-47.05 926.88,-47.05 926.88,-47.05 1048.62,-47.05 1048.62,-47.05 1054.62,-47.05 1060.62,-53.05 1060.62,-59.05 1060.62,-59.05 1060.62,-71.05 1060.62,-71.05 1060.62,-77.05 1054.62,-83.05 1048.62,-83.05"/>
<text xml:space="preserve" text-anchor="middle" x="987.75" y="-68.1" font-family="Helvetica,sans-Serif" font-size="11.00">Git remote (GitHub)</text>
<text xml:space="preserve" text-anchor="middle" x="987.75" y="-54.6" font-family="Helvetica,sans-Serif" font-size="11.00">commits + pointer files only</text>
</g>
<!-- PTR&#45;&gt;GH -->
<g id="edge4" class="edge">
<title>PTR&#45;&gt;GH</title>
<path fill="none" stroke="black" d="M824.38,-63.1C849.9,-63.41 877.7,-63.74 902.97,-64.04"/>
<polygon fill="black" stroke="black" points="902.83,-67.54 912.87,-64.16 902.91,-60.54 902.83,-67.54"/>
<text xml:space="preserve" text-anchor="middle" x="869.5" y="-65.85" font-family="Helvetica,sans-Serif" font-size="9.00">git push (tiny)</text>
</g>
<!-- LFSS -->
<g id="node6" class="node">
<title>LFSS</title>
<path fill="#eef3fb" stroke="black" d="M1040,-137.05C1040,-137.05 935.5,-137.05 935.5,-137.05 929.5,-137.05 923.5,-131.05 923.5,-125.05 923.5,-125.05 923.5,-113.05 923.5,-113.05 923.5,-107.05 929.5,-101.05 935.5,-101.05 935.5,-101.05 1040,-101.05 1040,-101.05 1046,-101.05 1052,-107.05 1052,-113.05 1052,-113.05 1052,-125.05 1052,-125.05 1052,-131.05 1046,-137.05 1040,-137.05"/>
<text xml:space="preserve" text-anchor="middle" x="987.75" y="-122.1" font-family="Helvetica,sans-Serif" font-size="11.00">LFS store</text>
<text xml:space="preserve" text-anchor="middle" x="987.75" y="-108.6" font-family="Helvetica,sans-Serif" font-size="11.00">real blobs, keyed by oid</text>
</g>
<!-- LFSC&#45;&gt;LFSS -->
<g id="edge5" class="edge">
<title>LFSC&#45;&gt;LFSS</title>
<path fill="none" stroke="black" d="M521.21,-111.52C630.25,-113.28 810.54,-116.2 911.79,-117.83"/>
<polygon fill="black" stroke="black" points="911.56,-121.33 921.62,-117.99 911.68,-114.33 911.56,-121.33"/>
<text xml:space="preserve" text-anchor="middle" x="735.5" y="-118.39" font-family="Helvetica,sans-Serif" font-size="9.00">git lfs push (uploads blob)</text>
</g>
</g>
</svg>
