<?xml version="1.0" encoding="UTF-8" standalone="no"?>
<!DOCTYPE svg PUBLIC "-//W3C//DTD SVG 1.1//EN"
 "http://www.w3.org/Graphics/SVG/1.1/DTD/svg11.dtd">
<!-- Generated by graphviz version 15.0.0 (20260523.1842)
 -->
<!-- Title: pipeline Pages: 1 -->
<svg width="2025pt" height="273pt"
 viewBox="0.00 0.00 2025.00 273.00" xmlns="http://www.w3.org/2000/svg" xmlns:xlink="http://www.w3.org/1999/xlink">
<g id="graph0" class="graph" transform="scale(1 1) rotate(0) translate(4 269)">
<title>pipeline</title>
<polygon fill="white" stroke="none" points="-4,4 -4,-269 2021.25,-269 2021.25,4 -4,4"/>
<g id="clust1" class="cluster">
<title>cluster_cpu0</title>
<polygon fill="#f7f7f7" stroke="#aaaaaa" points="163.5,-68 163.5,-145 344,-145 344,-68 163.5,-68"/>
<text xml:space="preserve" text-anchor="middle" x="253.75" y="-127.7" font-family="Times New Roman,serif" font-size="14.00">CPU / host RAM — decode</text>
</g>
<g id="clust2" class="cluster">
<title>cluster_gpu</title>
<polygon fill="#fff6ea" stroke="#e0a35c" points="515.5,-64 515.5,-257 1231.75,-257 1231.75,-64 515.5,-64"/>
<text xml:space="preserve" text-anchor="middle" x="873.62" y="-239.7" font-family="Times New Roman,serif" font-size="14.00">GPU — VRAM resident (Blackwell sm_120)</text>
</g>
<g id="clust3" class="cluster">
<title>cluster_cpu1</title>
<polygon fill="#f2fbf3" stroke="#7bb37b" points="1361.25,-92 1361.25,-231 1754.5,-231 1754.5,-92 1361.25,-92"/>
<text xml:space="preserve" text-anchor="middle" x="1557.88" y="-213.7" font-family="Times New Roman,serif" font-size="14.00">CPU / host RAM — export hook (NEW)</text>
</g>
<g id="clust4" class="cluster">
<title>cluster_wingpu</title>
<polygon fill="#eef4fc" stroke="#9bbce8" points="1775.5,-88 1775.5,-173 2009.25,-173 2009.25,-88 1775.5,-88"/>
<text xml:space="preserve" text-anchor="middle" x="1892.38" y="-155.7" font-family="Times New Roman,serif" font-size="14.00">Windows&#45;native — Blender (via MCP)</text>
</g>
<!-- V -->
<g id="node1" class="node">
<title>V</title>
<polygon fill="#fff6cc" stroke="black" points="128.5,-112 0,-112 0,-76 134.5,-76 134.5,-106 128.5,-112"/>
<polyline fill="none" stroke="black" points="128.5,-112 128.5,-106"/>
<polyline fill="none" stroke="black" points="134.5,-106 128.5,-106"/>
<text xml:space="preserve" text-anchor="middle" x="67.25" y="-90.5" font-family="Helvetica,sans-Serif" font-size="10.00">data/grip_AB_trimmed.mp4</text>
</g>
<!-- DEC -->
<g id="node2" class="node">
<title>DEC</title>
<path fill="#eef3fb" stroke="black" d="M324,-112C324,-112 183.5,-112 183.5,-112 177.5,-112 171.5,-106 171.5,-100 171.5,-100 171.5,-88 171.5,-88 171.5,-82 177.5,-76 183.5,-76 183.5,-76 324,-76 324,-76 330,-76 336,-82 336,-88 336,-88 336,-100 336,-100 336,-106 330,-112 324,-112"/>
<text xml:space="preserve" text-anchor="middle" x="253.75" y="-96.5" font-family="Helvetica,sans-Serif" font-size="10.00">cv2.VideoCapture · decord</text>
<text xml:space="preserve" text-anchor="middle" x="253.75" y="-84.5" font-family="Helvetica,sans-Serif" font-size="10.00">ffmpeg libavcodec &#45;&gt; RGB frames</text>
</g>
<!-- V&#45;&gt;DEC -->
<g id="edge1" class="edge">
<title>V&#45;&gt;DEC</title>
<path fill="none" stroke="black" d="M134.86,-94C142.95,-94 151.32,-94 159.71,-94"/>
<polygon fill="black" stroke="black" points="159.61,-97.5 169.61,-94 159.61,-90.5 159.61,-97.5"/>
</g>
<!-- SAM3 -->
<g id="node3" class="node">
<title>SAM3</title>
<path fill="#eef3fb" stroke="black" d="M712.75,-116C712.75,-116 535.5,-116 535.5,-116 529.5,-116 523.5,-110 523.5,-104 523.5,-104 523.5,-84 523.5,-84 523.5,-78 529.5,-72 535.5,-72 535.5,-72 712.75,-72 712.75,-72 718.75,-72 724.75,-78 724.75,-84 724.75,-84 724.75,-104 724.75,-104 724.75,-110 718.75,-116 712.75,-116"/>
<text xml:space="preserve" text-anchor="middle" x="624.12" y="-102.5" font-family="Helvetica,sans-Serif" font-size="10.00">SAM&#45;3 propagate_in_video</text>
<text xml:space="preserve" text-anchor="middle" x="624.12" y="-90.5" font-family="Helvetica,sans-Serif" font-size="10.00">ViT + memory&#45;attention</text>
<text xml:space="preserve" text-anchor="middle" x="624.12" y="-78.5" font-family="Helvetica,sans-Serif" font-size="10.00">cuDNN conv · cuBLAS GEMM · flash&#45;attn</text>
</g>
<!-- DEC&#45;&gt;SAM3 -->
<g id="edge2" class="edge">
<title>DEC&#45;&gt;SAM3</title>
<path fill="none" stroke="black" d="M336.05,-94C387.79,-94 455.49,-94 512.15,-94"/>
<polygon fill="black" stroke="black" points="511.81,-97.5 521.81,-94 511.81,-90.5 511.81,-97.5"/>
<text xml:space="preserve" text-anchor="middle" x="429.75" y="-95.95" font-family="Helvetica,sans-Serif" font-size="9.00">H2D cudaMemcpyAsync (PCIe DMA)</text>
</g>
<!-- MASKS -->
<g id="node8" class="node">
<title>MASKS</title>
<path fill="#f7f7f7" stroke="black" d="M672.25,-36C672.25,-36 576,-36 576,-36 570,-36 564,-30 564,-24 564,-24 564,-12 564,-12 564,-6 570,0 576,0 576,0 672.25,0 672.25,0 678.25,0 684.25,-6 684.25,-12 684.25,-12 684.25,-24 684.25,-24 684.25,-30 678.25,-36 672.25,-36"/>
<text xml:space="preserve" text-anchor="middle" x="624.12" y="-14.5" font-family="Helvetica,sans-Serif" font-size="10.00">per&#45;frame masks (CPU)</text>
</g>
<!-- SAM3&#45;&gt;MASKS -->
<g id="edge3" class="edge">
<title>SAM3&#45;&gt;MASKS</title>
<path fill="none" stroke="black" d="M624.12,-71.71C624.12,-64.25 624.12,-55.81 624.12,-47.88"/>
<polygon fill="black" stroke="black" points="627.63,-47.91 624.13,-37.91 620.63,-47.91 627.63,-47.91"/>
<text xml:space="preserve" text-anchor="middle" x="615.88" y="-50.7" font-family="Helvetica,sans-Serif" font-size="9.00">(masks&gt;0).cpu().numpy() D2H</text>
</g>
<!-- MOGE -->
<g id="node4" class="node">
<title>MOGE</title>
<path fill="#eef3fb" stroke="black" d="M671.88,-170C671.88,-170 576.38,-170 576.38,-170 570.38,-170 564.38,-164 564.38,-158 564.38,-158 564.38,-146 564.38,-146 564.38,-140 570.38,-134 576.38,-134 576.38,-134 671.88,-134 671.88,-134 677.88,-134 683.88,-140 683.88,-146 683.88,-146 683.88,-158 683.88,-158 683.88,-164 677.88,-170 671.88,-170"/>
<text xml:space="preserve" text-anchor="middle" x="624.12" y="-154.5" font-family="Helvetica,sans-Serif" font-size="10.00">MoGe&#45;2 ViT&#45;L</text>
<text xml:space="preserve" text-anchor="middle" x="624.12" y="-142.5" font-family="Helvetica,sans-Serif" font-size="10.00">FOV / camera intrinsics</text>
</g>
<!-- S3DB -->
<g id="node6" class="node">
<title>S3DB</title>
<path fill="#eef3fb" stroke="black" d="M978,-170C978,-170 773.75,-170 773.75,-170 767.75,-170 761.75,-164 761.75,-158 761.75,-158 761.75,-146 761.75,-146 761.75,-140 767.75,-134 773.75,-134 773.75,-134 978,-134 978,-134 984,-134 990,-140 990,-146 990,-146 990,-158 990,-158 990,-164 984,-170 978,-170"/>
<text xml:space="preserve" text-anchor="middle" x="875.88" y="-154.5" font-family="Helvetica,sans-Serif" font-size="10.00">SAM&#45;3D&#45;Body</text>
<text xml:space="preserve" text-anchor="middle" x="875.88" y="-142.5" font-family="Helvetica,sans-Serif" font-size="10.00">DINOv3 ViT &#45;&gt; decoder &#45;&gt; MHRHead.proj (FFN)</text>
</g>
<!-- MOGE&#45;&gt;S3DB -->
<g id="edge5" class="edge">
<title>MOGE&#45;&gt;S3DB</title>
<path fill="none" stroke="black" d="M684.31,-152C704.27,-152 727.36,-152 750.43,-152"/>
<polygon fill="black" stroke="black" points="750.22,-155.5 760.22,-152 750.22,-148.5 750.22,-155.5"/>
</g>
<!-- DET -->
<g id="node5" class="node">
<title>DET</title>
<path fill="#eef3fb" stroke="black" d="M685.75,-224C685.75,-224 562.5,-224 562.5,-224 556.5,-224 550.5,-218 550.5,-212 550.5,-212 550.5,-200 550.5,-200 550.5,-194 556.5,-188 562.5,-188 562.5,-188 685.75,-188 685.75,-188 691.75,-188 697.75,-194 697.75,-200 697.75,-200 697.75,-212 697.75,-212 697.75,-218 691.75,-224 685.75,-224"/>
<text xml:space="preserve" text-anchor="middle" x="624.12" y="-208.5" font-family="Helvetica,sans-Serif" font-size="10.00">detectron2 ViTDet (init bbox)</text>
<text xml:space="preserve" text-anchor="middle" x="624.12" y="-196.5" font-family="Helvetica,sans-Serif" font-size="10.00">custom CUDA: nms, roi_align</text>
</g>
<!-- DET&#45;&gt;S3DB -->
<g id="edge6" class="edge">
<title>DET&#45;&gt;S3DB</title>
<path fill="none" stroke="black" d="M698.03,-190.24C723.22,-184.79 751.83,-178.6 778.59,-172.82"/>
<polygon fill="black" stroke="black" points="779.02,-176.31 788.06,-170.77 777.54,-169.46 779.02,-176.31"/>
</g>
<!-- MHR -->
<g id="node7" class="node">
<title>MHR</title>
<path fill="#eef3fb" stroke="black" d="M1211.75,-174C1211.75,-174 1039,-174 1039,-174 1033,-174 1027,-168 1027,-162 1027,-162 1027,-142 1027,-142 1027,-136 1033,-130 1039,-130 1039,-130 1211.75,-130 1211.75,-130 1217.75,-130 1223.75,-136 1223.75,-142 1223.75,-142 1223.75,-162 1223.75,-162 1223.75,-168 1217.75,-174 1211.75,-174"/>
<text xml:space="preserve" text-anchor="middle" x="1125.38" y="-160.5" font-family="Helvetica,sans-Serif" font-size="10.00">TorchScript MHR (self.mhr)</text>
<text xml:space="preserve" text-anchor="middle" x="1125.38" y="-148.5" font-family="Helvetica,sans-Serif" font-size="10.00">linear&#45;blend skinning + roma quat&#45;&gt;rotmat</text>
<text xml:space="preserve" text-anchor="middle" x="1125.38" y="-136.5" font-family="Helvetica,sans-Serif" font-size="10.00">verts (18439x3) + skel_state (127)</text>
</g>
<!-- S3DB&#45;&gt;MHR -->
<g id="edge7" class="edge">
<title>S3DB&#45;&gt;MHR</title>
<path fill="none" stroke="black" d="M990.48,-152C998.69,-152 1006.95,-152 1015.13,-152"/>
<polygon fill="black" stroke="black" points="1015.11,-155.5 1025.11,-152 1015.11,-148.5 1015.11,-155.5"/>
</g>
<!-- ACC -->
<g id="node9" class="node">
<title>ACC</title>
<path fill="#eef3fb" stroke="black" d="M1509.75,-198C1509.75,-198 1425.5,-198 1425.5,-198 1419.5,-198 1413.5,-192 1413.5,-186 1413.5,-186 1413.5,-174 1413.5,-174 1413.5,-168 1419.5,-162 1425.5,-162 1425.5,-162 1509.75,-162 1509.75,-162 1515.75,-162 1521.75,-168 1521.75,-174 1521.75,-174 1521.75,-186 1521.75,-186 1521.75,-192 1515.75,-198 1509.75,-198"/>
<text xml:space="preserve" text-anchor="middle" x="1467.62" y="-182.5" font-family="Helvetica,sans-Serif" font-size="10.00">collect_frame_data</text>
<text xml:space="preserve" text-anchor="middle" x="1467.62" y="-170.5" font-family="Helvetica,sans-Serif" font-size="10.00">&#45;&gt; PersonExportData</text>
</g>
<!-- MHR&#45;&gt;ACC -->
<g id="edge8" class="edge">
<title>MHR&#45;&gt;ACC</title>
<path fill="none" stroke="black" d="M1223.88,-160.02C1281.08,-164.73 1351.77,-170.55 1402.09,-174.69"/>
<polygon fill="black" stroke="black" points="1401.7,-178.17 1411.95,-175.5 1402.27,-171.19 1401.7,-178.17"/>
<text xml:space="preserve" text-anchor="middle" x="1296.5" y="-172.09" font-family="Helvetica,sans-Serif" font-size="9.00">D2H per&#45;person dict</text>
</g>
<!-- RIG -->
<g id="node11" class="node">
<title>RIG</title>
<path fill="#fde8e8" stroke="black" d="M1554,-144C1554,-144 1381.25,-144 1381.25,-144 1375.25,-144 1369.25,-138 1369.25,-132 1369.25,-132 1369.25,-112 1369.25,-112 1369.25,-106 1375.25,-100 1381.25,-100 1381.25,-100 1554,-100 1554,-100 1560,-100 1566,-106 1566,-112 1566,-112 1566,-132 1566,-132 1566,-138 1560,-144 1554,-144"/>
<text xml:space="preserve" text-anchor="middle" x="1467.62" y="-130.5" font-family="Helvetica,sans-Serif" font-size="10.00">probe self.mhr buffers</text>
<text xml:space="preserve" text-anchor="middle" x="1467.62" y="-118.5" font-family="Helvetica,sans-Serif" font-size="10.00">&#45;&gt; mhr_rig.npz</text>
<text xml:space="preserve" text-anchor="middle" x="1467.62" y="-106.5" font-family="Helvetica,sans-Serif" font-size="10.00">(weights 18439x127, parents, rest, faces)</text>
</g>
<!-- MHR&#45;&gt;RIG -->
<g id="edge11" class="edge">
<title>MHR&#45;&gt;RIG</title>
<path fill="none" stroke="black" stroke-dasharray="5,2" d="M1223.88,-143.4C1265.61,-139.72 1314.52,-135.41 1357.46,-131.63"/>
<polygon fill="black" stroke="black" points="1357.65,-135.12 1367.31,-130.76 1357.04,-128.15 1357.65,-135.12"/>
<text xml:space="preserve" text-anchor="middle" x="1296.5" y="-143.39" font-family="Helvetica,sans-Serif" font-size="9.00">TorchScript named_buffers</text>
</g>
<!-- MASKS&#45;&gt;S3DB -->
<g id="edge4" class="edge">
<title>MASKS&#45;&gt;S3DB</title>
<path fill="none" stroke="black" d="M672.92,-36.44C689.58,-43.31 708.22,-51.51 724.75,-60 764.69,-80.51 808.23,-107.77 838.08,-127.29"/>
<polygon fill="black" stroke="black" points="836.11,-130.18 846.39,-132.76 839.96,-124.34 836.11,-130.18"/>
</g>
<!-- NPZ -->
<g id="node10" class="node">
<title>NPZ</title>
<path fill="#eef3fb" stroke="black" d="M1719.12,-198C1719.12,-198 1630.38,-198 1630.38,-198 1624.38,-198 1618.38,-192 1618.38,-186 1618.38,-186 1618.38,-166 1618.38,-166 1618.38,-160 1624.38,-154 1630.38,-154 1630.38,-154 1719.12,-154 1719.12,-154 1725.12,-154 1731.12,-160 1731.12,-166 1731.12,-166 1731.12,-186 1731.12,-186 1731.12,-192 1725.12,-198 1719.12,-198"/>
<text xml:space="preserve" text-anchor="middle" x="1674.75" y="-184.5" font-family="Helvetica,sans-Serif" font-size="10.00">np.savez poses.npz</text>
<text xml:space="preserve" text-anchor="middle" x="1674.75" y="-172.5" font-family="Helvetica,sans-Serif" font-size="10.00">joint_coords (F,127,3)</text>
<text xml:space="preserve" text-anchor="middle" x="1674.75" y="-160.5" font-family="Helvetica,sans-Serif" font-size="10.00">global_rots (F,127,3,3)</text>
</g>
<!-- ACC&#45;&gt;NPZ -->
<g id="edge9" class="edge">
<title>ACC&#45;&gt;NPZ</title>
<path fill="none" stroke="black" d="M1521.98,-178.96C1547.85,-178.46 1579.18,-177.84 1606.65,-177.31"/>
<polygon fill="black" stroke="black" points="1606.71,-180.81 1616.64,-177.11 1606.57,-173.81 1606.71,-180.81"/>
</g>
<!-- GLB -->
<g id="node12" class="node">
<title>GLB</title>
<path fill="#eef3fb" stroke="black" d="M1734.5,-136C1734.5,-136 1615,-136 1615,-136 1609,-136 1603,-130 1603,-124 1603,-124 1603,-112 1603,-112 1603,-106 1609,-100 1615,-100 1615,-100 1734.5,-100 1734.5,-100 1740.5,-100 1746.5,-106 1746.5,-112 1746.5,-112 1746.5,-124 1746.5,-124 1746.5,-130 1740.5,-136 1734.5,-136"/>
<text xml:space="preserve" text-anchor="middle" x="1674.75" y="-114.5" font-family="Helvetica,sans-Serif" font-size="10.00">pygltflib &#45;&gt; baked&#45;vertex GLB</text>
</g>
<!-- ACC&#45;&gt;GLB -->
<g id="edge10" class="edge">
<title>ACC&#45;&gt;GLB</title>
<path fill="none" stroke="black" d="M1522.06,-165.63C1536.37,-161.66 1551.8,-157.27 1566,-153 1579.52,-148.93 1593.94,-144.39 1607.68,-139.96"/>
<polygon fill="black" stroke="black" points="1608.65,-143.33 1617.09,-136.92 1606.49,-136.67 1608.65,-143.33"/>
</g>
<!-- BLND -->
<g id="node13" class="node">
<title>BLND</title>
<path fill="#eef3fb" stroke="black" d="M1989.25,-140C1989.25,-140 1795.5,-140 1795.5,-140 1789.5,-140 1783.5,-134 1783.5,-128 1783.5,-128 1783.5,-108 1783.5,-108 1783.5,-102 1789.5,-96 1795.5,-96 1795.5,-96 1989.25,-96 1989.25,-96 1995.25,-96 2001.25,-102 2001.25,-108 2001.25,-108 2001.25,-128 2001.25,-128 2001.25,-134 1995.25,-140 1989.25,-140"/>
<text xml:space="preserve" text-anchor="middle" x="1892.38" y="-126.5" font-family="Helvetica,sans-Serif" font-size="10.00">bpy: 127&#45;bone MHR armature</text>
<text xml:space="preserve" text-anchor="middle" x="1892.38" y="-114.5" font-family="Helvetica,sans-Serif" font-size="10.00">+ vertex&#45;group weights + per&#45;frame keyframes</text>
<text xml:space="preserve" text-anchor="middle" x="1892.38" y="-102.5" font-family="Helvetica,sans-Serif" font-size="10.00">GPU viewport / Cycles&#45;OptiX</text>
</g>
<!-- NPZ&#45;&gt;BLND -->
<g id="edge12" class="edge">
<title>NPZ&#45;&gt;BLND</title>
<path fill="none" stroke="black" d="M1731.56,-160.99C1751.5,-155.62 1774.57,-149.42 1796.87,-143.42"/>
<polygon fill="black" stroke="black" points="1797.53,-146.87 1806.28,-140.89 1795.71,-140.11 1797.53,-146.87"/>
</g>
<!-- RIG&#45;&gt;BLND -->
<g id="edge13" class="edge">
<title>RIG&#45;&gt;BLND</title>
<path fill="none" stroke="black" d="M1552.7,-99.53C1569.26,-95.98 1586.59,-92.87 1603,-91 1669.9,-83.38 1687.49,-84.45 1754.5,-91 1762.12,-91.74 1769.94,-92.72 1777.8,-93.85"/>
<polygon fill="black" stroke="black" points="1777.02,-97.27 1787.43,-95.32 1778.08,-90.35 1777.02,-97.27"/>
</g>
<!-- GLB&#45;&gt;BLND -->
<g id="edge14" class="edge">
<title>GLB&#45;&gt;BLND</title>
<path fill="none" stroke="black" d="M1746.95,-118C1755.05,-118 1763.47,-118 1771.98,-118"/>
<polygon fill="black" stroke="black" points="1771.7,-121.5 1781.7,-118 1771.7,-114.5 1771.7,-121.5"/>
</g>
</g>
</svg>
