<?xml version="1.0" encoding="UTF-8" standalone="no"?>
<!DOCTYPE svg PUBLIC "-//W3C//DTD SVG 1.1//EN"
 "http://www.w3.org/Graphics/SVG/1.1/DTD/svg11.dtd">
<!-- Generated by graphviz version 15.0.0 (20260523.1842)
 -->
<!-- Title: mhr_internals Pages: 1 -->
<svg width="690pt" height="889pt"
 viewBox="0.00 0.00 690.00 889.00" xmlns="http://www.w3.org/2000/svg" xmlns:xlink="http://www.w3.org/1999/xlink">
<g id="graph0" class="graph" transform="scale(1 1) rotate(0) translate(4 884.5)">
<title>mhr_internals</title>
<polygon fill="white" stroke="none" points="-4,4 -4,-884.5 686.12,-884.5 686.12,4 -4,4"/>
<g id="clust1" class="cluster">
<title>cluster_jit</title>
<polygon fill="#fff6ea" stroke="#e0a35c" points="8,-366.5 8,-525.5 432,-525.5 432,-366.5 8,-366.5"/>
<text xml:space="preserve" text-anchor="middle" x="220" y="-508.2" font-family="Times New Roman,serif" font-size="14.00">self.mhr — TorchScript (torch.jit.load mhr_model.pt), GPU</text>
</g>
<!-- TOK -->
<g id="node1" class="node">
<title>TOK</title>
<path fill="#eef3fb" stroke="black" d="M373,-880.5C373,-880.5 279,-880.5 279,-880.5 273,-880.5 267,-874.5 267,-868.5 267,-868.5 267,-856.5 267,-856.5 267,-850.5 273,-844.5 279,-844.5 279,-844.5 373,-844.5 373,-844.5 379,-844.5 385,-850.5 385,-856.5 385,-856.5 385,-868.5 385,-868.5 385,-874.5 379,-880.5 373,-880.5"/>
<text xml:space="preserve" text-anchor="middle" x="326" y="-865" font-family="Helvetica,sans-Serif" font-size="10.00">pose token x [B,C]</text>
<text xml:space="preserve" text-anchor="middle" x="326" y="-853" font-family="Helvetica,sans-Serif" font-size="10.00">(from DINOv3 decoder)</text>
</g>
<!-- PROJ -->
<g id="node2" class="node">
<title>PROJ</title>
<path fill="#eef3fb" stroke="black" d="M372.25,-807.5C372.25,-807.5 279.75,-807.5 279.75,-807.5 273.75,-807.5 267.75,-801.5 267.75,-795.5 267.75,-795.5 267.75,-783.5 267.75,-783.5 267.75,-777.5 273.75,-771.5 279.75,-771.5 279.75,-771.5 372.25,-771.5 372.25,-771.5 378.25,-771.5 384.25,-777.5 384.25,-783.5 384.25,-783.5 384.25,-795.5 384.25,-795.5 384.25,-801.5 378.25,-807.5 372.25,-807.5"/>
<text xml:space="preserve" text-anchor="middle" x="326" y="-792" font-family="Helvetica,sans-Serif" font-size="10.00">MHRHead.proj FFN</text>
<text xml:space="preserve" text-anchor="middle" x="326" y="-780" font-family="Helvetica,sans-Serif" font-size="10.00">&#45;&gt; pred [B, npose=601]</text>
</g>
<!-- TOK&#45;&gt;PROJ -->
<g id="edge1" class="edge">
<title>TOK&#45;&gt;PROJ</title>
<path fill="none" stroke="black" d="M326,-844.31C326,-836.73 326,-827.6 326,-819.04"/>
<polygon fill="black" stroke="black" points="329.5,-819.04 326,-809.04 322.5,-819.04 329.5,-819.04"/>
</g>
<!-- SPLIT -->
<g id="node3" class="node">
<title>SPLIT</title>
<path fill="#eef3fb" stroke="black" d="M415.75,-734.5C415.75,-734.5 236.25,-734.5 236.25,-734.5 230.25,-734.5 224.25,-728.5 224.25,-722.5 224.25,-722.5 224.25,-710.5 224.25,-710.5 224.25,-704.5 230.25,-698.5 236.25,-698.5 236.25,-698.5 415.75,-698.5 415.75,-698.5 421.75,-698.5 427.75,-704.5 427.75,-710.5 427.75,-710.5 427.75,-722.5 427.75,-722.5 427.75,-728.5 421.75,-734.5 415.75,-734.5"/>
<text xml:space="preserve" text-anchor="middle" x="326" y="-719" font-family="Helvetica,sans-Serif" font-size="10.00">split: global_rot6d · body_cont(260)</text>
<text xml:space="preserve" text-anchor="middle" x="326" y="-707" font-family="Helvetica,sans-Serif" font-size="10.00">shape(45) · scale(28) · hand(108) · face(72)</text>
</g>
<!-- PROJ&#45;&gt;SPLIT -->
<g id="edge2" class="edge">
<title>PROJ&#45;&gt;SPLIT</title>
<path fill="none" stroke="black" d="M326,-771.31C326,-763.73 326,-754.6 326,-746.04"/>
<polygon fill="black" stroke="black" points="329.5,-746.04 326,-736.04 322.5,-746.04 329.5,-746.04"/>
</g>
<!-- CONV -->
<g id="node4" class="node">
<title>CONV</title>
<path fill="#eef3fb" stroke="black" d="M407.12,-661.5C407.12,-661.5 244.88,-661.5 244.88,-661.5 238.88,-661.5 232.88,-655.5 232.88,-649.5 232.88,-649.5 232.88,-637.5 232.88,-637.5 232.88,-631.5 238.88,-625.5 244.88,-625.5 244.88,-625.5 407.12,-625.5 407.12,-625.5 413.12,-625.5 419.12,-631.5 419.12,-637.5 419.12,-637.5 419.12,-649.5 419.12,-649.5 419.12,-655.5 413.12,-661.5 407.12,-661.5"/>
<text xml:space="preserve" text-anchor="middle" x="326" y="-646" font-family="Helvetica,sans-Serif" font-size="10.00">rot6d_to_rotmat · roma euler</text>
<text xml:space="preserve" text-anchor="middle" x="326" y="-634" font-family="Helvetica,sans-Serif" font-size="10.00">compact_cont_to_model_params_body</text>
</g>
<!-- SPLIT&#45;&gt;CONV -->
<g id="edge3" class="edge">
<title>SPLIT&#45;&gt;CONV</title>
<path fill="none" stroke="black" d="M326,-698.31C326,-690.73 326,-681.6 326,-673.04"/>
<polygon fill="black" stroke="black" points="329.5,-673.04 326,-663.04 322.5,-673.04 329.5,-673.04"/>
</g>
<!-- MODELP -->
<g id="node5" class="node">
<title>MODELP</title>
<path fill="#eef3fb" stroke="black" d="M391.38,-588.5C391.38,-588.5 260.62,-588.5 260.62,-588.5 254.62,-588.5 248.62,-582.5 248.62,-576.5 248.62,-576.5 248.62,-564.5 248.62,-564.5 248.62,-558.5 254.62,-552.5 260.62,-552.5 260.62,-552.5 391.38,-552.5 391.38,-552.5 397.38,-552.5 403.38,-558.5 403.38,-564.5 403.38,-564.5 403.38,-576.5 403.38,-576.5 403.38,-582.5 397.38,-588.5 391.38,-588.5"/>
<text xml:space="preserve" text-anchor="middle" x="326" y="-567" font-family="Helvetica,sans-Serif" font-size="10.00">model_params [B,127(+scales)]</text>
</g>
<!-- CONV&#45;&gt;MODELP -->
<g id="edge4" class="edge">
<title>CONV&#45;&gt;MODELP</title>
<path fill="none" stroke="black" d="M326,-625.31C326,-617.73 326,-608.6 326,-600.04"/>
<polygon fill="black" stroke="black" points="329.5,-600.04 326,-590.04 322.5,-600.04 329.5,-600.04"/>
</g>
<!-- JIT -->
<g id="node6" class="node">
<title>JIT</title>
<path fill="#eef3fb" stroke="black" d="M412.38,-493C412.38,-493 239.62,-493 239.62,-493 233.62,-493 227.62,-487 227.62,-481 227.62,-481 227.62,-469 227.62,-469 227.62,-463 233.62,-457 239.62,-457 239.62,-457 412.38,-457 412.38,-457 418.38,-457 424.38,-463 424.38,-469 424.38,-469 424.38,-481 424.38,-481 424.38,-487 418.38,-493 412.38,-493"/>
<text xml:space="preserve" text-anchor="middle" x="326" y="-471.5" font-family="Helvetica,sans-Serif" font-size="10.00">mhr(shape_params, model_params, expr)</text>
</g>
<!-- MODELP&#45;&gt;JIT -->
<g id="edge5" class="edge">
<title>MODELP&#45;&gt;JIT</title>
<path fill="none" stroke="black" d="M326,-552.35C326,-538.99 326,-520.15 326,-504.53"/>
<polygon fill="black" stroke="black" points="329.5,-504.87 326,-494.87 322.5,-504.87 329.5,-504.87"/>
</g>
<!-- SKIN -->
<g id="node7" class="node">
<title>SKIN</title>
<path fill="#eef3fb" stroke="black" d="M200.38,-410.5C200.38,-410.5 27.62,-410.5 27.62,-410.5 21.62,-410.5 15.62,-404.5 15.62,-398.5 15.62,-398.5 15.62,-386.5 15.62,-386.5 15.62,-380.5 21.62,-374.5 27.62,-374.5 27.62,-374.5 200.38,-374.5 200.38,-374.5 206.38,-374.5 212.38,-380.5 212.38,-386.5 212.38,-386.5 212.38,-398.5 212.38,-398.5 212.38,-404.5 206.38,-410.5 200.38,-410.5"/>
<text xml:space="preserve" text-anchor="middle" x="114" y="-395" font-family="Helvetica,sans-Serif" font-size="10.00">linear&#45;blend skinning</text>
<text xml:space="preserve" text-anchor="middle" x="114" y="-383" font-family="Helvetica,sans-Serif" font-size="10.00">skin_weights (18439x127) @ joint xforms</text>
</g>
<!-- JIT&#45;&gt;SKIN -->
<g id="edge6" class="edge">
<title>JIT&#45;&gt;SKIN</title>
<path fill="none" stroke="black" d="M280,-456.53C247.77,-444.3 204.52,-427.87 170.24,-414.85"/>
<polygon fill="black" stroke="black" points="171.92,-411.75 161.33,-411.47 169.43,-418.29 171.92,-411.75"/>
</g>
<!-- SKEL -->
<g id="node8" class="node">
<title>SKEL</title>
<path fill="#eef3fb" stroke="black" d="M411.5,-410.5C411.5,-410.5 242.5,-410.5 242.5,-410.5 236.5,-410.5 230.5,-404.5 230.5,-398.5 230.5,-398.5 230.5,-386.5 230.5,-386.5 230.5,-380.5 236.5,-374.5 242.5,-374.5 242.5,-374.5 411.5,-374.5 411.5,-374.5 417.5,-374.5 423.5,-380.5 423.5,-386.5 423.5,-386.5 423.5,-398.5 423.5,-398.5 423.5,-404.5 417.5,-410.5 411.5,-410.5"/>
<text xml:space="preserve" text-anchor="middle" x="327" y="-395" font-family="Helvetica,sans-Serif" font-size="10.00">skel_state &#45;&gt; joint_coords(127,3)</text>
<text xml:space="preserve" text-anchor="middle" x="327" y="-383" font-family="Helvetica,sans-Serif" font-size="10.00">+ joint_quats &#45;&gt; roma unitquat_to_rotmat</text>
</g>
<!-- JIT&#45;&gt;SKEL -->
<g id="edge7" class="edge">
<title>JIT&#45;&gt;SKEL</title>
<path fill="none" stroke="black" d="M326.22,-456.53C326.34,-446.51 326.5,-433.68 326.64,-422.21"/>
<polygon fill="black" stroke="black" points="330.14,-422.49 326.76,-412.45 323.14,-422.4 330.14,-422.49"/>
</g>
<!-- RIGNPZ -->
<g id="node17" class="node">
<title>RIGNPZ</title>
<path fill="#fde8e8" stroke="black" d="M670.12,-410.5C670.12,-410.5 453.88,-410.5 453.88,-410.5 447.88,-410.5 441.88,-404.5 441.88,-398.5 441.88,-398.5 441.88,-386.5 441.88,-386.5 441.88,-380.5 447.88,-374.5 453.88,-374.5 453.88,-374.5 670.12,-374.5 670.12,-374.5 676.12,-374.5 682.12,-380.5 682.12,-386.5 682.12,-386.5 682.12,-398.5 682.12,-398.5 682.12,-404.5 676.12,-410.5 670.12,-410.5"/>
<text xml:space="preserve" text-anchor="middle" x="562" y="-395" font-family="Helvetica,sans-Serif" font-size="10.00">mhr_rig.npz</text>
<text xml:space="preserve" text-anchor="middle" x="562" y="-383" font-family="Helvetica,sans-Serif" font-size="10.00">weights 18439x127 · parents · rest · faces(36874,3)</text>
</g>
<!-- JIT&#45;&gt;RIGNPZ -->
<g id="edge18" class="edge">
<title>JIT&#45;&gt;RIGNPZ</title>
<path fill="none" stroke="black" stroke-dasharray="5,2" d="M377.21,-456.53C413.39,-444.19 462.07,-427.59 500.38,-414.52"/>
<polygon fill="black" stroke="black" points="501.12,-417.96 509.46,-411.42 498.86,-411.34 501.12,-417.96"/>
<text xml:space="preserve" text-anchor="middle" x="524.13" y="-430.45" font-family="Helvetica,sans-Serif" font-size="9.00">named_buffers probe (one&#45;shot)</text>
</g>
<!-- VERTS -->
<g id="node9" class="node">
<title>VERTS</title>
<path fill="#eef3fb" stroke="black" d="M171.88,-337.5C171.88,-337.5 56.12,-337.5 56.12,-337.5 50.12,-337.5 44.12,-331.5 44.12,-325.5 44.12,-325.5 44.12,-313.5 44.12,-313.5 44.12,-307.5 50.12,-301.5 56.12,-301.5 56.12,-301.5 171.88,-301.5 171.88,-301.5 177.88,-301.5 183.88,-307.5 183.88,-313.5 183.88,-313.5 183.88,-325.5 183.88,-325.5 183.88,-331.5 177.88,-337.5 171.88,-337.5"/>
<text xml:space="preserve" text-anchor="middle" x="114" y="-316" font-family="Helvetica,sans-Serif" font-size="10.00">pred_vertices (18439,3) /100</text>
</g>
<!-- SKIN&#45;&gt;VERTS -->
<g id="edge8" class="edge">
<title>SKIN&#45;&gt;VERTS</title>
<path fill="none" stroke="black" d="M114,-374.31C114,-366.73 114,-357.6 114,-349.04"/>
<polygon fill="black" stroke="black" points="117.5,-349.04 114,-339.04 110.5,-349.04 117.5,-349.04"/>
</g>
<!-- JC -->
<g id="node10" class="node">
<title>JC</title>
<path fill="#eef3fb" stroke="black" d="M315.75,-337.5C315.75,-337.5 214.25,-337.5 214.25,-337.5 208.25,-337.5 202.25,-331.5 202.25,-325.5 202.25,-325.5 202.25,-313.5 202.25,-313.5 202.25,-307.5 208.25,-301.5 214.25,-301.5 214.25,-301.5 315.75,-301.5 315.75,-301.5 321.75,-301.5 327.75,-307.5 327.75,-313.5 327.75,-313.5 327.75,-325.5 327.75,-325.5 327.75,-331.5 321.75,-337.5 315.75,-337.5"/>
<text xml:space="preserve" text-anchor="middle" x="265" y="-316" font-family="Helvetica,sans-Serif" font-size="10.00">pred_joint_coords (127,3)</text>
</g>
<!-- SKEL&#45;&gt;JC -->
<g id="edge11" class="edge">
<title>SKEL&#45;&gt;JC</title>
<path fill="none" stroke="black" d="M311.99,-374.31C304.6,-365.85 295.55,-355.48 287.37,-346.11"/>
<polygon fill="black" stroke="black" points="290.08,-343.9 280.87,-338.67 284.81,-348.5 290.08,-343.9"/>
</g>
<!-- GR -->
<g id="node11" class="node">
<title>GR</title>
<path fill="#eef3fb" stroke="black" d="M461.88,-337.5C461.88,-337.5 358.12,-337.5 358.12,-337.5 352.12,-337.5 346.12,-331.5 346.12,-325.5 346.12,-325.5 346.12,-313.5 346.12,-313.5 346.12,-307.5 352.12,-301.5 358.12,-301.5 358.12,-301.5 461.88,-301.5 461.88,-301.5 467.88,-301.5 473.88,-307.5 473.88,-313.5 473.88,-313.5 473.88,-325.5 473.88,-325.5 473.88,-331.5 467.88,-337.5 461.88,-337.5"/>
<text xml:space="preserve" text-anchor="middle" x="410" y="-316" font-family="Helvetica,sans-Serif" font-size="10.00">joint_global_rots (127,3,3)</text>
</g>
<!-- SKEL&#45;&gt;GR -->
<g id="edge13" class="edge">
<title>SKEL&#45;&gt;GR</title>
<path fill="none" stroke="black" d="M347.09,-374.31C357.31,-365.57 369.92,-354.78 381.16,-345.17"/>
<polygon fill="black" stroke="black" points="383.33,-347.92 388.66,-338.76 378.78,-342.6 383.33,-347.92"/>
</g>
<!-- FLIP -->
<g id="node12" class="node">
<title>FLIP</title>
<path fill="#eef3fb" stroke="black" d="M215.12,-264.5C215.12,-264.5 70.88,-264.5 70.88,-264.5 64.88,-264.5 58.88,-258.5 58.88,-252.5 58.88,-252.5 58.88,-240.5 58.88,-240.5 58.88,-234.5 64.88,-228.5 70.88,-228.5 70.88,-228.5 215.12,-228.5 215.12,-228.5 221.12,-228.5 227.12,-234.5 227.12,-240.5 227.12,-240.5 227.12,-252.5 227.12,-252.5 227.12,-258.5 221.12,-264.5 215.12,-264.5"/>
<text xml:space="preserve" text-anchor="middle" x="143" y="-243" font-family="Helvetica,sans-Serif" font-size="10.00">verts[...,[1,2]] *= &#45;1 (camera frame)</text>
</g>
<!-- VERTS&#45;&gt;FLIP -->
<g id="edge9" class="edge">
<title>VERTS&#45;&gt;FLIP</title>
<path fill="none" stroke="black" d="M121.02,-301.31C124.23,-293.46 128.1,-283.97 131.7,-275.16"/>
<polygon fill="black" stroke="black" points="134.93,-276.51 135.47,-265.93 128.45,-273.86 134.93,-276.51"/>
</g>
<!-- OUT -->
<g id="node13" class="node">
<title>OUT</title>
<path fill="#fff6cc" stroke="black" d="M308.25,-191.5C308.25,-191.5 221.75,-191.5 221.75,-191.5 215.75,-191.5 209.75,-185.5 209.75,-179.5 209.75,-179.5 209.75,-167.5 209.75,-167.5 209.75,-161.5 215.75,-155.5 221.75,-155.5 221.75,-155.5 308.25,-155.5 308.25,-155.5 314.25,-155.5 320.25,-161.5 320.25,-167.5 320.25,-167.5 320.25,-179.5 320.25,-179.5 320.25,-185.5 314.25,-191.5 308.25,-191.5"/>
<text xml:space="preserve" text-anchor="middle" x="265" y="-170" font-family="Helvetica,sans-Serif" font-size="10.00">per&#45;person output dict</text>
</g>
<!-- JC&#45;&gt;OUT -->
<g id="edge12" class="edge">
<title>JC&#45;&gt;OUT</title>
<path fill="none" stroke="black" d="M265,-301.13C265,-276.8 265,-232.3 265,-203.06"/>
<polygon fill="black" stroke="black" points="268.5,-203.44 265,-193.44 261.5,-203.44 268.5,-203.44"/>
</g>
<!-- GR&#45;&gt;OUT -->
<g id="edge14" class="edge">
<title>GR&#45;&gt;OUT</title>
<path fill="none" stroke="black" d="M392.51,-301.13C367.14,-275.94 319.98,-229.1 290.67,-200"/>
<polygon fill="black" stroke="black" points="293.19,-197.56 283.63,-193 288.26,-202.53 293.19,-197.56"/>
</g>
<!-- FLIP&#45;&gt;OUT -->
<g id="edge10" class="edge">
<title>FLIP&#45;&gt;OUT</title>
<path fill="none" stroke="black" d="M172.84,-228.13C188.65,-218.93 208.27,-207.52 225.33,-197.58"/>
<polygon fill="black" stroke="black" points="226.85,-200.75 233.73,-192.7 223.33,-194.7 226.85,-200.75"/>
</g>
<!-- ACC -->
<g id="node14" class="node">
<title>ACC</title>
<path fill="#eef3fb" stroke="black" d="M349.88,-109C349.88,-109 180.12,-109 180.12,-109 174.12,-109 168.12,-103 168.12,-97 168.12,-97 168.12,-85 168.12,-85 168.12,-79 174.12,-73 180.12,-73 180.12,-73 349.88,-73 349.88,-73 355.88,-73 361.88,-79 361.88,-85 361.88,-85 361.88,-97 361.88,-97 361.88,-103 355.88,-109 349.88,-109"/>
<text xml:space="preserve" text-anchor="middle" x="265" y="-87.5" font-family="Helvetica,sans-Serif" font-size="10.00">collect_frame_data &#45;&gt; PersonExportData</text>
</g>
<!-- OUT&#45;&gt;ACC -->
<g id="edge15" class="edge">
<title>OUT&#45;&gt;ACC</title>
<path fill="none" stroke="black" d="M265,-155.03C265,-145.01 265,-132.18 265,-120.71"/>
<polygon fill="black" stroke="black" points="268.5,-120.95 265,-110.95 261.5,-120.95 268.5,-120.95"/>
<text xml:space="preserve" text-anchor="middle" x="289" y="-128.95" font-family="Helvetica,sans-Serif" font-size="9.00">export hook</text>
</g>
<!-- POSES -->
<g id="node15" class="node">
<title>POSES</title>
<path fill="#f2fbf3" stroke="black" d="M262,-36C262,-36 120,-36 120,-36 114,-36 108,-30 108,-24 108,-24 108,-12 108,-12 108,-6 114,0 120,0 120,0 262,0 262,0 268,0 274,-6 274,-12 274,-12 274,-24 274,-24 274,-30 268,-36 262,-36"/>
<text xml:space="preserve" text-anchor="middle" x="191" y="-14.5" font-family="Helvetica,sans-Serif" font-size="10.00">poses.npz (per&#45;frame coords+rots)</text>
</g>
<!-- ACC&#45;&gt;POSES -->
<g id="edge16" class="edge">
<title>ACC&#45;&gt;POSES</title>
<path fill="none" stroke="black" d="M247.09,-72.81C238.15,-64.24 227.18,-53.71 217.31,-44.24"/>
<polygon fill="black" stroke="black" points="219.74,-41.72 210.1,-37.32 214.89,-46.77 219.74,-41.72"/>
</g>
<!-- GLBOUT -->
<g id="node16" class="node">
<title>GLBOUT</title>
<path fill="#f2fbf3" stroke="black" d="M374.38,-36C374.38,-36 303.62,-36 303.62,-36 297.62,-36 291.62,-30 291.62,-24 291.62,-24 291.62,-12 291.62,-12 291.62,-6 297.62,0 303.62,0 303.62,0 374.38,0 374.38,0 380.38,0 386.38,-6 386.38,-12 386.38,-12 386.38,-24 386.38,-24 386.38,-30 380.38,-36 374.38,-36"/>
<text xml:space="preserve" text-anchor="middle" x="339" y="-14.5" font-family="Helvetica,sans-Serif" font-size="10.00">baked&#45;vertex GLB</text>
</g>
<!-- ACC&#45;&gt;GLBOUT -->
<g id="edge17" class="edge">
<title>ACC&#45;&gt;GLBOUT</title>
<path fill="none" stroke="black" d="M282.91,-72.81C291.85,-64.24 302.82,-53.71 312.69,-44.24"/>
<polygon fill="black" stroke="black" points="315.11,-46.77 319.9,-37.32 310.26,-41.72 315.11,-46.77"/>
</g>
</g>
</svg>
