<?xml version="1.0" encoding="UTF-8" standalone="no"?>
<!DOCTYPE svg PUBLIC "-//W3C//DTD SVG 1.1//EN"
 "http://www.w3.org/Graphics/SVG/1.1/DTD/svg11.dtd">
<!-- Generated by graphviz version 15.0.0 (20260523.1842)
 -->
<!-- Title: pipeline_system Pages: 1 -->
<svg width="1538pt" height="240pt"
 viewBox="0.00 0.00 1538.00 240.00" xmlns="http://www.w3.org/2000/svg" xmlns:xlink="http://www.w3.org/1999/xlink">
<g id="graph0" class="graph" transform="scale(1 1) rotate(0) translate(4 236)">
<title>pipeline_system</title>
<polygon fill="white" stroke="none" points="-4,4 -4,-236 1533.75,-236 1533.75,4 -4,4"/>
<g id="clust1" class="cluster">
<title>cluster_ckpt</title>
<polygon fill="#f7f7f7" stroke="#aaaaaa" points="159.75,-8 159.75,-85 437.5,-85 437.5,-8 159.75,-8"/>
<text xml:space="preserve" text-anchor="middle" x="298.62" y="-67.7" font-family="Times New Roman,serif" font-size="14.00">checkpoints &#160;(~/checkpoints, HF gated ~10 GB)</text>
</g>
<g id="clust2" class="cluster">
<title>cluster_wsl</title>
<polygon fill="#f3fbf5" stroke="#7bb37b" points="230.38,-93 230.38,-224 1079.25,-224 1079.25,-93 230.38,-93"/>
<text xml:space="preserve" text-anchor="middle" x="654.81" y="-206.7" font-family="Times New Roman,serif" font-size="14.00">WSL2 (Ubuntu 24.04) — venv · GPU via GPU&#45;PV</text>
</g>
<g id="clust3" class="cluster">
<title>cluster_win</title>
<polygon fill="#eef4fc" stroke="#9bbce8" points="1159.25,-97 1159.25,-174 1521.75,-174 1521.75,-97 1159.25,-97"/>
<text xml:space="preserve" text-anchor="middle" x="1340.5" y="-156.7" font-family="Times New Roman,serif" font-size="14.00">Windows&#45;native — Blender 5.1 (via MCP)</text>
</g>
<!-- V -->
<g id="node1" class="node">
<title>V</title>
<polygon fill="#fff6cc" stroke="black" points="115.75,-166 9,-166 9,-130 121.75,-130 121.75,-160 115.75,-166"/>
<polyline fill="none" stroke="black" points="115.75,-166 115.75,-160"/>
<polyline fill="none" stroke="black" points="121.75,-160 115.75,-160"/>
<text xml:space="preserve" text-anchor="middle" x="65.38" y="-150.5" font-family="Helvetica,sans-Serif" font-size="10.00">grip_AB_trimmed.mp4</text>
<text xml:space="preserve" text-anchor="middle" x="65.38" y="-138.5" font-family="Helvetica,sans-Serif" font-size="10.00">(LFS · assets/videos)</text>
</g>
<!-- SAM3 -->
<g id="node4" class="node">
<title>SAM3</title>
<path fill="#eef3fb" stroke="black" d="M345.88,-137C345.88,-137 250.38,-137 250.38,-137 244.38,-137 238.38,-131 238.38,-125 238.38,-125 238.38,-113 238.38,-113 238.38,-107 244.38,-101 250.38,-101 250.38,-101 345.88,-101 345.88,-101 351.88,-101 357.88,-107 357.88,-113 357.88,-113 357.88,-125 357.88,-125 357.88,-131 351.88,-137 345.88,-137"/>
<text xml:space="preserve" text-anchor="middle" x="298.12" y="-121.5" font-family="Helvetica,sans-Serif" font-size="10.00">SAM&#45;3</text>
<text xml:space="preserve" text-anchor="middle" x="298.12" y="-109.5" font-family="Helvetica,sans-Serif" font-size="10.00">video mask propagation</text>
</g>
<!-- V&#45;&gt;SAM3 -->
<g id="edge1" class="edge">
<title>V&#45;&gt;SAM3</title>
<path fill="none" stroke="black" d="M122.23,-140.98C153.75,-137.02 193.43,-132.03 227.02,-127.81"/>
<polygon fill="black" stroke="black" points="227.17,-131.32 236.65,-126.6 226.29,-124.37 227.17,-131.32"/>
</g>
<!-- BBOX -->
<g id="node2" class="node">
<title>BBOX</title>
<path fill="#fde8e8" stroke="black" d="M118.75,-112C118.75,-112 12,-112 12,-112 6,-112 0,-106 0,-100 0,-100 0,-80 0,-80 0,-74 6,-68 12,-68 12,-68 118.75,-68 118.75,-68 124.75,-68 130.75,-74 130.75,-80 130.75,-80 130.75,-100 130.75,-100 130.75,-106 124.75,-112 118.75,-112"/>
<text xml:space="preserve" text-anchor="middle" x="65.38" y="-98.5" font-family="Helvetica,sans-Serif" font-size="10.00">centered bbox</text>
<text xml:space="preserve" text-anchor="middle" x="65.38" y="-86.5" font-family="Helvetica,sans-Serif" font-size="10.00">(human_detector=None —</text>
<text xml:space="preserve" text-anchor="middle" x="65.38" y="-74.5" font-family="Helvetica,sans-Serif" font-size="10.00">no detectron2)</text>
</g>
<!-- BBOX&#45;&gt;SAM3 -->
<g id="edge2" class="edge">
<title>BBOX&#45;&gt;SAM3</title>
<path fill="none" stroke="black" d="M130.96,-98.12C160.75,-101.86 196.19,-106.31 226.67,-110.15"/>
<polygon fill="black" stroke="black" points="226.23,-113.62 236.59,-111.39 227.1,-106.67 226.23,-113.62"/>
</g>
<!-- CK -->
<g id="node3" class="node">
<title>CK</title>
<path fill="#eef3fb" stroke="black" d="M381.5,-52C381.5,-52 214.75,-52 214.75,-52 208.75,-52 202.75,-46 202.75,-40 202.75,-40 202.75,-28 202.75,-28 202.75,-22 208.75,-16 214.75,-16 214.75,-16 381.5,-16 381.5,-16 387.5,-16 393.5,-22 393.5,-28 393.5,-28 393.5,-40 393.5,-40 393.5,-46 387.5,-52 381.5,-52"/>
<text xml:space="preserve" text-anchor="middle" x="298.12" y="-30.5" font-family="Helvetica,sans-Serif" font-size="10.00">SAM&#45;3 · SAM&#45;3D&#45;Body+MHR · MoGe&#45;2</text>
</g>
<!-- S3DB -->
<g id="node6" class="node">
<title>S3DB</title>
<path fill="#eef3fb" stroke="black" d="M687,-139C687,-139 513.5,-139 513.5,-139 507.5,-139 501.5,-133 501.5,-127 501.5,-127 501.5,-115 501.5,-115 501.5,-109 507.5,-103 513.5,-103 513.5,-103 687,-103 687,-103 693,-103 699,-109 699,-115 699,-115 699,-127 699,-127 699,-133 693,-139 687,-139"/>
<text xml:space="preserve" text-anchor="middle" x="600.25" y="-123.5" font-family="Helvetica,sans-Serif" font-size="10.00">SAM&#45;3D&#45;Body → MHR</text>
<text xml:space="preserve" text-anchor="middle" x="600.25" y="-111.5" font-family="Helvetica,sans-Serif" font-size="10.00">per&#45;frame mesh (18439v) + 127&#45;joint pose</text>
</g>
<!-- CK&#45;&gt;S3DB -->
<g id="edge5" class="edge">
<title>CK&#45;&gt;S3DB</title>
<path fill="none" stroke="black" stroke-dasharray="5,2" d="M362.77,-52.45C410.04,-66.15 474.67,-84.89 524.42,-99.31"/>
<polygon fill="black" stroke="black" points="523.4,-102.66 533.98,-102.08 525.35,-95.93 523.4,-102.66"/>
<text xml:space="preserve" text-anchor="middle" x="465.5" y="-87.24" font-family="Helvetica,sans-Serif" font-size="9.00">weights</text>
</g>
<!-- SAM3&#45;&gt;S3DB -->
<g id="edge3" class="edge">
<title>SAM3&#45;&gt;S3DB</title>
<path fill="none" stroke="black" d="M358.06,-119.39C395.52,-119.64 445.16,-119.97 489.67,-120.27"/>
<polygon fill="black" stroke="black" points="489.63,-123.77 499.65,-120.34 489.67,-116.77 489.63,-123.77"/>
<text xml:space="preserve" text-anchor="middle" x="465.5" y="-122.13" font-family="Helvetica,sans-Serif" font-size="9.00">masks</text>
</g>
<!-- MOGE -->
<g id="node5" class="node">
<title>MOGE</title>
<path fill="#eef3fb" stroke="black" d="M345.88,-191C345.88,-191 250.38,-191 250.38,-191 244.38,-191 238.38,-185 238.38,-179 238.38,-179 238.38,-167 238.38,-167 238.38,-161 244.38,-155 250.38,-155 250.38,-155 345.88,-155 345.88,-155 351.88,-155 357.88,-161 357.88,-167 357.88,-167 357.88,-179 357.88,-179 357.88,-185 351.88,-191 345.88,-191"/>
<text xml:space="preserve" text-anchor="middle" x="298.12" y="-175.5" font-family="Helvetica,sans-Serif" font-size="10.00">MoGe&#45;2</text>
<text xml:space="preserve" text-anchor="middle" x="298.12" y="-163.5" font-family="Helvetica,sans-Serif" font-size="10.00">FOV / camera intrinsics</text>
</g>
<!-- MOGE&#45;&gt;S3DB -->
<g id="edge4" class="edge">
<title>MOGE&#45;&gt;S3DB</title>
<path fill="none" stroke="black" d="M358.06,-162.79C395.6,-156.29 445.37,-147.66 489.95,-139.94"/>
<polygon fill="black" stroke="black" points="490.42,-143.41 499.67,-138.25 489.22,-136.51 490.42,-143.41"/>
<text xml:space="preserve" text-anchor="middle" x="465.5" y="-148.95" font-family="Helvetica,sans-Serif" font-size="9.00">intrinsics</text>
</g>
<!-- HOOK -->
<g id="node7" class="node">
<title>HOOK</title>
<path fill="#eef3fb" stroke="black" d="M902.75,-140C902.75,-140 748,-140 748,-140 742,-140 736,-134 736,-128 736,-128 736,-116 736,-116 736,-110 742,-104 748,-104 748,-104 902.75,-104 902.75,-104 908.75,-104 914.75,-110 914.75,-116 914.75,-116 914.75,-128 914.75,-128 914.75,-134 908.75,-140 902.75,-140"/>
<text xml:space="preserve" text-anchor="middle" x="825.38" y="-124.5" font-family="Helvetica,sans-Serif" font-size="10.00">export hook (offline_app.py)</text>
<text xml:space="preserve" text-anchor="middle" x="825.38" y="-112.5" font-family="Helvetica,sans-Serif" font-size="10.00">utils.mesh_export.collect_frame_data</text>
</g>
<!-- S3DB&#45;&gt;HOOK -->
<g id="edge6" class="edge">
<title>S3DB&#45;&gt;HOOK</title>
<path fill="none" stroke="black" d="M699.44,-121.44C707.72,-121.48 716.1,-121.51 724.39,-121.55"/>
<polygon fill="black" stroke="black" points="724.1,-125.05 734.11,-121.6 724.13,-118.05 724.1,-125.05"/>
</g>
<!-- OUT -->
<g id="node8" class="node">
<title>OUT</title>
<polygon fill="#f2fbf3" stroke="black" points="1065.25,-145 951.75,-145 951.75,-101 1071.25,-101 1071.25,-139 1065.25,-145"/>
<polyline fill="none" stroke="black" points="1065.25,-145 1065.25,-139"/>
<polyline fill="none" stroke="black" points="1071.25,-139 1065.25,-139"/>
<text xml:space="preserve" text-anchor="middle" x="1011.5" y="-131.5" font-family="Helvetica,sans-Serif" font-size="10.00">poses.npz · baked GLB</text>
<text xml:space="preserve" text-anchor="middle" x="1011.5" y="-119.5" font-family="Helvetica,sans-Serif" font-size="10.00">mhr_rig.npz (best&#45;effort)</text>
<text xml:space="preserve" text-anchor="middle" x="1011.5" y="-107.5" font-family="Helvetica,sans-Serif" font-size="10.00">+ overlay MP4</text>
</g>
<!-- HOOK&#45;&gt;OUT -->
<g id="edge7" class="edge">
<title>HOOK&#45;&gt;OUT</title>
<path fill="none" stroke="black" d="M915.2,-122.48C923.51,-122.53 931.86,-122.57 939.98,-122.62"/>
<polygon fill="black" stroke="black" points="939.73,-126.12 949.74,-122.67 939.76,-119.12 939.73,-126.12"/>
</g>
<!-- BL -->
<g id="node9" class="node">
<title>BL</title>
<path fill="#eef3fb" stroke="black" d="M1346.75,-141C1346.75,-141 1179.25,-141 1179.25,-141 1173.25,-141 1167.25,-135 1167.25,-129 1167.25,-129 1167.25,-117 1167.25,-117 1167.25,-111 1173.25,-105 1179.25,-105 1179.25,-105 1346.75,-105 1346.75,-105 1352.75,-105 1358.75,-111 1358.75,-117 1358.75,-117 1358.75,-129 1358.75,-129 1358.75,-135 1352.75,-141 1346.75,-141"/>
<text xml:space="preserve" text-anchor="middle" x="1263" y="-125.5" font-family="Helvetica,sans-Serif" font-size="10.00">127&#45;bone MHR armature</text>
<text xml:space="preserve" text-anchor="middle" x="1263" y="-113.5" font-family="Helvetica,sans-Serif" font-size="10.00">+ skin weights + per&#45;frame keyed poses</text>
</g>
<!-- OUT&#45;&gt;BL -->
<g id="edge8" class="edge">
<title>OUT&#45;&gt;BL</title>
<path fill="none" stroke="black" d="M1071.63,-123C1096.82,-123 1127,-123 1155.82,-123"/>
<polygon fill="black" stroke="black" points="1155.7,-126.5 1165.7,-123 1155.7,-119.5 1155.7,-126.5"/>
<text xml:space="preserve" text-anchor="middle" x="1119.25" y="-124.95" font-family="Helvetica,sans-Serif" font-size="9.00">copy via /mnt/c</text>
</g>
<!-- DELIV -->
<g id="node10" class="node">
<title>DELIV</title>
<polygon fill="#ffe9cc" stroke="black" points="1507.75,-141 1395.75,-141 1395.75,-105 1513.75,-105 1513.75,-135 1507.75,-141"/>
<polyline fill="none" stroke="black" points="1507.75,-141 1507.75,-135"/>
<polyline fill="none" stroke="black" points="1513.75,-135 1507.75,-135"/>
<text xml:space="preserve" text-anchor="middle" x="1454.75" y="-125.5" font-family="Helvetica,sans-Serif" font-size="10.00">rigged .blend + MP4</text>
<text xml:space="preserve" text-anchor="middle" x="1454.75" y="-113.5" font-family="Helvetica,sans-Serif" font-size="10.00">right hand A→B ≈ 33.5°</text>
</g>
<!-- BL&#45;&gt;DELIV -->
<g id="edge9" class="edge">
<title>BL&#45;&gt;DELIV</title>
<path fill="none" stroke="black" d="M1359.15,-123C1367.57,-123 1375.99,-123 1384.14,-123"/>
<polygon fill="black" stroke="black" points="1383.95,-126.5 1393.95,-123 1383.95,-119.5 1383.95,-126.5"/>
</g>
</g>
</svg>
